<svg width="30" height="30" viewBox="0 0 30 30" fill="none" xmlns="http://www.w3.org/2000/svg">
<path d="M3.08496 11.2051V24.6943C3.08496 25.3444 3.6892 25.7798 4.40179 26.2799C5.21439 26.8508 6.16868 27.3738 6.52081 27.3738L26.0128 27.503C26.5129 27.503 26.9171 26.8904 26.9171 26.3903V11.2051H3.08496Z" fill="#BDBDBD"/>
<path d="M23.275 26.4044C22.6125 26.4857 21.9499 26.5211 21.2873 26.5794C20.6247 26.6211 19.9621 26.6586 19.2995 26.6836C18.637 26.7169 17.9744 26.7232 17.3118 26.744L15.324 26.7627L13.3363 26.7419C12.6737 26.7232 12.0111 26.7148 11.3485 26.6815C10.686 26.6565 10.0234 26.619 9.3608 26.5773C8.69821 26.519 8.03563 26.4836 7.37305 26.4023V26.3607L15.322 26.3398L23.2709 26.3607V26.4044H23.275Z" fill="#757575"/>
<path opacity="0.29" d="M26.9168 26.3897L25.1919 24.6166V10.8169L26.9168 10.7773V26.3897Z" fill="url(#paint0_linear_435_792)"/>
<path d="M26.9172 12.3596L25.5715 11.5157L23.4653 2.5C23.4653 2.5 23.5903 2.5 24.5986 2.5C26.6089 2.5 26.9172 3.66056 26.9172 4.05645V12.3596Z" fill="#C62828"/>
<path d="M3.69775 11.2051V24.2651C3.69775 24.8276 4.15406 25.2818 4.71455 25.2818H24.4774C25.04 25.2818 25.5651 24.863 25.5651 24.3005V23.2087V11.2051H3.69775Z" fill="#FAFAFA"/>
<path d="M12.4123 22.9863H10.6249V16.1L8.4917 16.7605V15.3082L12.2186 13.9727H12.4102V22.9863H12.4123Z" fill="black"/>
<path d="M20.8236 14.9823L17.3446 22.9854H15.4593L18.9445 15.4261H14.4697V13.9863H20.8236V14.9823Z" fill="black"/>
<path d="M19.2725 25.2818H24.5472C25.1097 25.2818 25.5638 24.8256 25.5638 24.2652V20.4258C25.5638 20.4258 24.418 22.0174 22.6827 23.3256C20.9474 24.6339 19.2725 25.2818 19.2725 25.2818Z" fill="#757575"/>
<path d="M23.9957 23.3985C25.604 21.5049 25.5644 20.4258 25.5644 20.4258C25.5644 20.4258 25.0999 21.0799 23.6395 21.2278C23.125 21.2799 22.3875 21.082 21.8438 20.9008C21.5167 20.7924 21.1771 21.0257 21.1667 21.3674C21.1521 21.807 21.0792 22.4236 20.8438 23.1569C20.4522 24.3818 19.271 25.2818 19.271 25.2818C19.271 25.2818 22.1979 25.513 23.9957 23.3985Z" fill="#BDBDBD"/>
<path opacity="0.29" d="M25.5651 12.5529L3.69775 12.5759V11.5176H25.5651V12.5529Z" fill="#616161"/>
<path d="M25.5711 11.5157H3.08496V3.69807C3.08496 3.03548 3.62044 2.5 4.28303 2.5H24.4085C25.0731 2.5 25.6107 3.03965 25.6065 3.70432L25.5711 11.5157Z" fill="#F44336"/>
<path d="M10.4069 4.88867H11.2652V7.77185C11.2652 8.03642 11.2068 8.27183 11.0902 8.4739C10.9735 8.67597 10.8068 8.8343 10.5944 8.94471C10.3798 9.05512 10.1402 9.11137 9.87148 9.11137C9.43192 9.11137 9.08818 8.99887 8.84236 8.77597C8.59654 8.55306 8.47363 8.23433 8.47363 7.82602H9.33817C9.33817 8.03017 9.38192 8.18017 9.46733 8.27808C9.55274 8.37599 9.68815 8.4239 9.87356 8.4239C10.0381 8.4239 10.1673 8.36766 10.2652 8.25516C10.3631 8.14267 10.411 7.98226 10.411 7.77394V4.88867H10.4069Z" fill="white"/>
<path d="M13.799 8.73801C13.5948 8.98591 13.3136 9.10882 12.9532 9.10882C12.6219 9.10882 12.3678 9.01299 12.1949 8.82342C12.0199 8.63384 11.9303 8.35261 11.9282 7.98596V5.95898H12.7553V7.96096C12.7553 8.28386 12.9011 8.44427 13.1948 8.44427C13.4761 8.44427 13.6677 8.34636 13.7719 8.15262V5.95898H14.601V9.05257H13.824L13.799 8.73801Z" fill="white"/>
<path d="M16.0957 9.05159H15.2666V4.66016H16.0957V9.05159Z" fill="white"/>
<path d="M17.9317 7.87998L18.5045 5.95508H19.392L18.1483 9.52989L18.0796 9.69238C17.8942 10.0965 17.59 10.2986 17.165 10.2986C17.0442 10.2986 16.9234 10.2799 16.7984 10.2444V9.61739L16.9234 9.61947C17.0796 9.61947 17.1963 9.59655 17.2734 9.54864C17.3504 9.50073 17.4109 9.42156 17.4546 9.31115L17.5525 9.057L16.4692 5.95508H17.3588L17.9317 7.87998Z" fill="white"/>
<path d="M6.41659 6.84685C7.23347 6.84685 7.89568 6.18464 7.89568 5.36776C7.89568 4.55088 7.23347 3.88867 6.41659 3.88867C5.59971 3.88867 4.9375 4.55088 4.9375 5.36776C4.9375 6.18464 5.59971 6.84685 6.41659 6.84685Z" fill="#606060"/>
<path d="M5.92489 6.35466C6.74177 6.35466 7.40398 5.69245 7.40398 4.87557C7.40398 4.0587 6.74177 3.39648 5.92489 3.39648C5.10801 3.39648 4.4458 4.0587 4.4458 4.87557C4.4458 5.69245 5.10801 6.35466 5.92489 6.35466Z" fill="#94D1E0"/>
<path d="M6.05152 4.26407C6.01818 4.44114 5.90569 4.59114 5.77653 4.71821C5.62237 4.86821 5.44113 4.9932 5.23698 5.06195C5.11615 5.10361 4.97657 5.12028 4.87033 5.04945C4.57659 4.85154 4.812 4.10783 5.0349 3.90992C5.37447 3.60994 6.16818 3.66618 6.05152 4.26407Z" fill="#C9EFF2"/>
<path d="M22.7725 6.84685C23.5894 6.84685 24.2516 6.18464 24.2516 5.36776C24.2516 4.55088 23.5894 3.88867 22.7725 3.88867C21.9557 3.88867 21.2935 4.55088 21.2935 5.36776C21.2935 6.18464 21.9557 6.84685 22.7725 6.84685Z" fill="#606060"/>
<path d="M22.2828 6.35466C23.0997 6.35466 23.7619 5.69245 23.7619 4.87557C23.7619 4.0587 23.0997 3.39648 22.2828 3.39648C21.4659 3.39648 20.8037 4.0587 20.8037 4.87557C20.8037 5.69245 21.4659 6.35466 22.2828 6.35466Z" fill="#94D1E0"/>
<path d="M22.4094 4.26407C22.3761 4.44114 22.2636 4.59114 22.1344 4.71821C21.9803 4.86821 21.799 4.9932 21.5949 5.06195C21.4741 5.10361 21.3345 5.12028 21.2282 5.04945C20.9345 4.85154 21.1699 4.10783 21.3928 3.90992C21.7324 3.60994 22.524 3.66618 22.4094 4.26407Z" fill="#C9EFF2"/>
<defs>
<linearGradient id="paint0_linear_435_792" x1="26.0543" y1="17.2311" x2="26.0543" y2="25.5508" gradientUnits="userSpaceOnUse">
<stop offset="0.3374" stopColor="#616161"/>
<stop offset="1" stopColor="#616161" stopOpacity="0"/>
</linearGradient>
</defs>
</svg>
