<svg width="30" height="30" viewBox="0 0 30 30" fill="none" xmlns="http://www.w3.org/2000/svg">
<path d="M14.9152 26.4075C9.10302 26.4075 2.83252 22.7619 2.83252 14.7624C2.83252 6.76281 9.10302 3.11719 14.9152 3.11719C18.1442 3.11719 21.1232 4.17963 23.3314 6.11702C25.7271 8.24189 26.9979 11.2417 26.9979 14.7624C26.9979 18.283 25.7271 21.262 23.3314 23.3869C21.1232 25.3242 18.1234 26.4075 14.9152 26.4075Z" fill="url(#paint0_radial_447_1160)"/>
<path d="M24.8921 7.83984C26.0024 9.63141 26.5816 11.7646 26.5816 14.1374C26.5816 17.658 25.3108 20.637 22.9151 22.7619C20.7069 24.6993 17.707 25.7826 14.4989 25.7826C10.7366 25.7826 6.79096 24.2514 4.46191 21.0037C6.70346 24.6826 10.9199 26.4075 14.9155 26.4075C18.1237 26.4075 21.1235 25.3243 23.3317 23.3869C25.7275 21.262 26.9982 18.283 26.9982 14.7624C26.9982 12.1083 26.2753 9.75015 24.8921 7.83984Z" fill="#EB8F00"/>
<path d="M9.14605 12.4328C9.21688 12.4349 9.28563 12.4411 9.35437 12.4536C9.38979 12.4494 9.42729 12.4578 9.45854 12.4744H9.75019C9.83352 12.4786 9.91893 12.4703 10.0002 12.4536C10.0835 12.4536 10.1668 12.4119 10.271 12.4119C10.3585 12.3974 10.4418 12.3682 10.521 12.3286C10.6897 12.2786 10.846 12.1932 10.9793 12.0786C11.046 12.0286 11.1105 11.9724 11.1668 11.912C11.2084 11.8495 11.2709 11.787 11.3126 11.7245L11.4376 11.537C11.473 11.4787 11.5022 11.4162 11.5209 11.3495C11.5418 11.287 11.5626 11.2453 11.5834 11.1828C11.6022 11.1287 11.6313 11.0808 11.6668 11.037L11.7501 10.8704C11.9292 10.4808 12.3875 10.31 12.7771 10.4891C12.7813 10.4912 12.7875 10.4933 12.7917 10.4954C13.0375 10.6162 13.2083 10.8495 13.25 11.1203C13.2521 11.2099 13.2583 11.3016 13.2708 11.3912V11.7036C13.2583 11.8432 13.2375 11.9828 13.2083 12.1203C13.1688 12.2849 13.1125 12.4453 13.0417 12.5994C12.925 12.8848 12.7542 13.1473 12.5417 13.3702L12.4375 13.4952L12.2917 13.5785C12.1209 13.7223 11.9397 13.8535 11.7501 13.9743C11.5563 14.0743 11.3543 14.1598 11.1459 14.2243L11.0001 14.266L10.8543 14.2868C10.7585 14.3097 10.6606 14.3243 10.5626 14.3285C10.3752 14.3493 10.1877 14.3493 10.0002 14.3285C9.83976 14.3202 9.67936 14.2993 9.52103 14.266C9.37937 14.2368 9.2398 14.1952 9.10439 14.141C9.04814 14.1243 8.99189 14.1035 8.93773 14.0785C8.89607 14.0577 8.87523 14.0368 8.83357 14.016C8.76899 13.9848 8.70649 13.9493 8.64608 13.9118C8.27318 13.6744 8.16277 13.1827 8.39609 12.8077C8.56067 12.5578 8.84607 12.414 9.14605 12.4328Z" fill="#422B0D"/>
<path d="M20.3601 18.142C18.6206 17.6212 16.8123 17.3691 14.9978 17.3921C13.1584 17.3754 11.3272 17.6379 9.56688 18.1733C8.9565 19.167 8.63152 20.3086 8.62318 21.4752C8.61277 22.2084 9.19815 22.8105 9.93145 22.8209C10.1419 22.823 10.3523 22.7772 10.5397 22.6834C11.9376 22.0293 13.4563 21.6751 14.9978 21.6418C16.5415 21.671 18.0602 22.0272 19.4559 22.6834C20.1122 23.0084 20.9079 22.7418 21.235 22.0835C21.3288 21.8939 21.3767 21.6856 21.3725 21.4752C21.36 20.2898 21.0079 19.1336 20.3601 18.142Z" fill="#422B0D"/>
<path d="M20.3601 18.1411C19.1018 16.1621 16.8915 15.6621 14.9979 15.6621C12.9396 15.6621 10.7689 16.1767 9.56689 18.162C11.3272 17.6307 13.1584 17.3703 14.9979 17.3912C16.8123 17.3683 18.6206 17.6203 20.3601 18.1411Z" fill="white"/>
<path d="M14.9868 15.3516C15.7201 15.3578 16.4514 15.4495 17.1659 15.6224C17.8909 15.7953 18.5762 16.1015 19.1887 16.5265C19.7928 16.9661 20.2907 17.5369 20.647 18.1931C21.0032 18.8326 21.2553 19.5263 21.3886 20.245C21.4553 20.6033 21.4907 20.9658 21.4907 21.3304C21.499 21.522 21.4782 21.7116 21.4282 21.897C21.3719 22.0845 21.2782 22.2574 21.1553 22.4074C20.9053 22.7032 20.5449 22.8865 20.1574 22.9136C19.9678 22.924 19.7762 22.899 19.5949 22.8407C19.4137 22.7741 19.2637 22.6928 19.0991 22.6324C17.8075 22.0366 16.4097 21.6991 14.9868 21.6429C16.4159 21.645 17.8325 21.9283 19.1533 22.4762C19.32 22.5407 19.4866 22.622 19.6408 22.672C19.8012 22.7157 19.9678 22.7303 20.1324 22.7157C20.4616 22.6824 20.7615 22.5178 20.9657 22.2574C21.0636 22.1303 21.1344 21.9824 21.174 21.8262C21.2115 21.6658 21.224 21.4991 21.2094 21.3346C21.1949 20.9846 21.149 20.6346 21.074 20.2929C20.922 19.6159 20.6615 18.968 20.2991 18.3764C19.9512 17.7889 19.4762 17.2869 18.9096 16.9056C18.3367 16.539 17.7013 16.2807 17.0347 16.1474C16.3576 16.0119 15.6681 15.9515 14.9785 15.9703L14.9868 15.3516Z" fill="#EB8F00"/>
<path d="M15.0395 15.9765C14.3499 15.9578 13.6604 16.0182 12.9854 16.1536C12.3188 16.2869 11.6834 16.5452 11.1105 16.9119C10.5439 17.2931 10.0689 17.7952 9.72099 18.3826C9.3606 18.9743 9.09811 19.6222 8.94603 20.2992C8.87104 20.6408 8.82521 20.9908 8.81063 21.3408C8.79604 21.5054 8.80854 21.672 8.84604 21.8324C8.8877 21.9887 8.95853 22.1345 9.05436 22.2637C9.25852 22.5241 9.5585 22.6886 9.88765 22.722C10.0522 22.7366 10.2189 22.722 10.3793 22.6782C10.5355 22.6282 10.7022 22.547 10.8668 22.4824C12.1875 21.9345 13.6041 21.6512 15.0332 21.6491C13.6125 21.7012 12.2146 22.0324 10.9209 22.6241C10.7584 22.6949 10.6064 22.7761 10.4251 22.8324C10.2439 22.8907 10.0522 22.9157 9.86265 22.9053C9.47309 22.8782 9.11269 22.6949 8.86271 22.397C8.73771 22.247 8.64397 22.0741 8.58772 21.8866C8.53772 21.7012 8.51689 21.5116 8.52522 21.32C8.52731 20.9554 8.56272 20.5929 8.6273 20.2346C8.76479 19.5159 9.01686 18.8243 9.37518 18.1868C9.73141 17.5306 10.2293 16.9598 10.8334 16.5202C11.448 16.0974 12.1354 15.7932 12.8604 15.6224C13.575 15.4495 14.3062 15.3578 15.0395 15.3516V15.9765Z" fill="#EB8F00"/>
<path d="M9.31691 8.84741C8.88568 9.02657 9.00859 9.6807 9.50231 9.59529C10.5835 9.37238 11.5376 8.74533 12.1668 7.83914C12.4105 7.51207 12.598 7.14751 12.7209 6.76003C12.8021 6.56629 12.7105 6.34131 12.5147 6.26006C12.3188 6.17882 12.0959 6.27048 12.0147 6.4663L11.998 6.4913C11.398 7.5579 10.4523 8.38702 9.31691 8.84741Z" fill="#422B0D"/>
<path d="M20.8455 12.4347C20.7746 12.4368 20.7059 12.4431 20.6371 12.4556C20.6017 12.4514 20.5642 12.4597 20.533 12.4764H20.2413C20.158 12.4806 20.0726 12.4722 19.9913 12.4556C19.908 12.4556 19.8247 12.4139 19.7205 12.4139C19.633 12.3993 19.5497 12.3701 19.4705 12.3306C19.3018 12.2806 19.1455 12.1952 19.0122 12.0806C18.9456 12.0306 18.881 11.9743 18.8247 11.9139C18.7831 11.8514 18.7206 11.7889 18.6789 11.7264L18.5539 11.5389C18.5185 11.4806 18.4893 11.4181 18.4706 11.3514C18.4497 11.289 18.4289 11.2473 18.4081 11.1848C18.3914 11.1327 18.3664 11.0827 18.3331 11.039L18.2498 10.8723C18.0706 10.4827 17.6123 10.3119 17.2227 10.4911C17.2186 10.4932 17.2123 10.4952 17.2081 10.4973C16.9623 10.6182 16.7915 10.8515 16.7498 11.1223C16.7478 11.2119 16.7415 11.3035 16.729 11.3931V11.7056C16.7415 11.8452 16.7623 11.9847 16.7915 12.1222C16.8311 12.2868 16.8873 12.4472 16.9582 12.6014C17.0748 12.8868 17.2456 13.1493 17.4581 13.3722L17.5623 13.4972L17.7081 13.5805C17.8789 13.7242 18.0602 13.8555 18.2498 13.9763C18.4435 14.0763 18.6456 14.1617 18.8539 14.2263L18.9997 14.2679L19.1455 14.2888C19.2414 14.3117 19.3393 14.3263 19.4372 14.3304C19.6247 14.3513 19.8122 14.3513 19.9997 14.3304C20.1601 14.3221 20.3205 14.3013 20.4788 14.2679C20.6205 14.2388 20.76 14.1971 20.8954 14.143C20.9517 14.1263 21.0079 14.1055 21.0621 14.0805C21.1038 14.0596 21.1246 14.0388 21.1663 14.018C21.2308 13.9867 21.2933 13.9513 21.3538 13.9138C21.7267 13.6763 21.8371 13.1847 21.6037 12.8097C21.4371 12.5555 21.1475 12.4118 20.8455 12.4347Z" fill="#422B0D"/>
<path d="M20.6745 8.84762C21.1057 9.02678 20.9828 9.68091 20.4891 9.5955C19.4079 9.37259 18.4538 8.74555 17.8247 7.83935C17.5809 7.51437 17.3934 7.14772 17.2726 6.76024C17.2039 6.56234 17.308 6.3436 17.508 6.27485C17.6893 6.21236 17.8892 6.2936 17.9747 6.46651L17.9913 6.49151C18.5934 7.55811 19.5392 8.38723 20.6745 8.84762Z" fill="#422B0D"/>
<defs>
<radialGradient id="paint0_radial_447_1160" cx="0" cy="0" r="1" gradientUnits="userSpaceOnUse" gradientTransform="translate(14.9152 14.7624) scale(11.866 11.8659)">
<stop offset="0.5" stopColor="#FDE030"/>
<stop offset="0.92" stopColor="#F7C02B"/>
<stop offset="1" stopColor="#F4A223"/>
</radialGradient>
</defs>
</svg>
