<svg width="30" height="30" viewBox="0 0 30 30" fill="none" xmlns="http://www.w3.org/2000/svg">
<path d="M21.8277 16.1753C21.5402 15.7732 21.786 15.3003 22.2339 14.6941C22.9443 13.7338 23.5901 11.6339 22.5172 9.70897C22.5214 9.69647 22.311 9.37565 22.3152 9.36523L21.9735 9.39023C21.8631 9.38815 18.1341 9.83604 14.401 10.2902C10.6699 10.7464 6.94097 11.2089 6.83473 11.2381C6.83473 11.2381 6.37642 11.6693 6.38267 11.6797C5.80561 13.8046 6.93681 15.6899 7.85759 16.4503C8.43673 16.9294 8.79296 17.3294 8.60755 17.7898C8.43048 18.2356 7.75551 18.3793 7.75551 18.3793C7.75551 18.3793 7.96592 18.7876 8.37215 18.9731C8.74921 19.1439 9.18669 19.1418 9.48459 19.1126C9.48459 19.1126 10.847 20.5834 13.8906 20.2105L15.5843 20.0022L17.2779 19.7959C20.3215 19.4251 21.2902 17.669 21.2902 17.669C21.5881 17.6252 22.011 17.5231 22.3381 17.2669C22.6881 16.9898 22.7943 16.544 22.7943 16.544C22.7943 16.544 22.1068 16.5649 21.8277 16.1753Z" fill="#543930"/>
<path d="M15.584 20L15.3652 18.2126L20.7233 17.123L21.2899 17.6689C21.2899 17.6689 20.3212 19.4229 17.2776 19.7958L15.584 20Z" fill="url(#paint0_radial_447_1168)"/>
<path d="M21.1839 16.8884C20.2236 15.7573 21.9651 15.0781 21.9651 15.0781H21.9672C21.7027 15.5052 21.6006 15.8614 21.8256 16.1739C22.1068 16.5635 22.7963 16.5426 22.7963 16.5426C22.7963 16.5426 21.9672 17.4822 21.1839 16.8884Z" fill="url(#paint1_radial_447_1168)"/>
<path d="M22.5211 9.70754C23.5648 11.5699 22.9648 13.6927 22.2753 14.6406C22.1815 14.7698 21.7753 15.2802 21.7149 15.6551C21.7149 15.6551 19.6004 13.3553 18.8796 11.9408C18.7338 11.6554 18.5963 11.3595 18.5463 11.0429C18.5067 10.8054 18.5088 10.5179 18.6213 10.2992C18.7588 10.0304 22.4003 9.51172 22.4003 9.51172C22.4003 9.51172 22.5211 9.70754 22.5211 9.70754Z" fill="url(#paint2_radial_447_1168)"/>
<path d="M6.38462 11.6762C5.82006 13.7344 6.91167 15.651 7.80954 16.4051C7.93245 16.5093 8.44909 16.9051 8.59908 17.2551C8.59908 17.2551 10.099 14.5156 10.4573 12.9678C10.5302 12.6553 10.5906 12.3366 10.5656 12.0158C10.5469 11.7762 10.474 11.497 10.3136 11.3116C10.1157 11.0846 9.9261 11.1741 9.64069 11.2096C9.09489 11.2762 6.69085 11.4283 6.50544 11.4512C6.50544 11.4533 6.38462 11.6762 6.38462 11.6762Z" fill="url(#paint3_radial_447_1168)"/>
<path d="M15.593 19.9964L15.3742 18.209L9.90994 18.4402L9.49121 19.1048C9.49121 19.1048 10.8536 20.5755 13.8972 20.2026L15.593 19.9964Z" fill="url(#paint4_radial_447_1168)"/>
<path d="M9.40906 18.3265C10.0694 16.9974 8.21537 16.7578 8.21537 16.7578L8.21329 16.7599C8.57369 17.1099 8.75701 17.4328 8.61327 17.789C8.43619 18.2348 7.76123 18.3786 7.76123 18.3786C7.76123 18.3786 8.79243 19.0889 9.40906 18.3265Z" fill="url(#paint5_radial_447_1168)"/>
<path d="M7.1418 14.6547C6.68765 14.3172 6.26268 13.9235 5.8752 13.4756C5.67729 13.2568 5.28564 12.8964 4.89816 12.9298C4.819 12.936 4.71692 12.9631 4.61901 13.036C4.35444 12.6944 3.74406 11.7778 3.43991 10.9695C3.317 10.7132 3.10243 10.6716 2.95452 10.7132C2.69203 10.7903 2.52329 11.1236 2.56287 11.4924C2.69203 12.7215 3.65448 14.2193 4.01488 14.5714L4.00863 14.5755C4.71692 15.438 4.78359 16.6962 4.78359 16.7087C4.78775 16.8067 4.86067 16.8879 4.9565 16.9046L6.93764 17.2358C6.95014 17.2379 6.96056 17.2379 6.97306 17.2379C7.06055 17.2379 7.1418 17.1816 7.16888 17.0962C7.30012 16.7108 7.60427 15.7942 7.60844 15.5859C7.62094 14.9776 7.23554 14.7109 7.1418 14.6547Z" fill="url(#paint6_linear_447_1168)"/>
<path d="M27.0987 10.7191C26.9508 10.6733 26.73 10.7149 26.5967 10.992C26.2988 11.7836 25.6884 12.6982 25.4238 13.0398C25.3259 12.9669 25.2238 12.9419 25.1447 12.9336C24.7572 12.9002 24.3655 13.2606 24.1655 13.4814C23.7801 13.9252 23.3552 14.321 22.901 14.6564C22.8073 14.7126 22.4219 14.9772 22.4344 15.5897C22.4385 15.798 22.7427 16.7167 22.8739 17.1C22.9031 17.1854 22.9823 17.2417 23.0698 17.2417C23.0823 17.2417 23.0927 17.2417 23.1052 17.2396L25.0863 16.9083C25.1926 16.8917 25.2676 16.7959 25.2592 16.6875C25.2592 16.6771 25.1884 15.5647 26.0321 14.5814L26.0259 14.5772C26.3863 14.2272 27.3175 12.6961 27.4799 11.5003C27.5299 11.1357 27.3654 10.7983 27.0987 10.7191Z" fill="url(#paint7_linear_447_1168)"/>
<path d="M25.7777 24.8006C25.8069 26.2797 24.6153 27.4963 23.1341 27.4963C22.8424 27.4963 22.5675 27.4358 22.3216 27.3213C22.3133 27.3171 22.305 27.315 22.2987 27.3108C22.1758 27.2567 22.0612 27.19 21.955 27.1088C21.8071 26.9984 21.6738 26.8671 21.5613 26.7213C21.3488 26.4484 21.2092 26.1192 21.1634 25.7651L21.1592 25.7672L21.1571 25.7693V27.4963H8.87027V25.7443L8.86193 25.7401C8.86193 25.7443 8.86193 25.7463 8.85985 25.7484V25.7505C8.77027 26.4234 8.33904 27.0004 7.73699 27.2838H7.73491C7.47867 27.4046 7.19535 27.4713 6.8912 27.4713C5.41212 27.4713 4.21843 26.2567 4.24759 24.7756L4.27051 16.3281C4.27468 16.1614 4.40592 16.026 4.57258 16.0156L7.24119 15.8594H7.2641C7.42659 15.8594 7.56617 15.9823 7.58492 16.1469L8.14322 20.0987C9.01401 19.3529 10.216 18.8051 11.868 18.8051C12.4138 18.8051 17.6156 18.8301 18.1594 18.8301C19.8114 18.8301 21.0134 19.3779 21.8842 20.1216L22.4404 16.1698C22.4612 16.0052 22.6008 15.8823 22.7633 15.8823C22.7716 15.8823 22.7779 15.8844 22.7862 15.8844L25.4548 16.0406C25.6215 16.051 25.7506 16.1864 25.7569 16.3531L25.7777 24.8006Z" fill="url(#paint8_linear_447_1168)"/>
<path d="M22.2988 27.3096C22.1759 27.2554 22.0613 27.1887 21.955 27.1075C21.8071 26.9971 21.6738 26.8658 21.5613 26.72C21.3488 26.4471 21.2092 26.118 21.1634 25.7638L21.1592 25.7659L21.0801 23.541C21.0801 23.541 21.2113 25.4472 22.2988 27.3096Z" fill="#DA6727"/>
<path d="M8.93884 23.541L8.85967 25.7471V25.7492C8.7701 26.4221 8.33887 26.9992 7.73682 27.2825C8.80759 25.4284 8.93884 23.541 8.93884 23.541Z" fill="#DA6727"/>
<path d="M13.1079 17.9805V20.0595C13.1079 20.9991 13.862 21.7615 14.9995 21.7615C16.1369 21.7615 16.891 20.9991 16.891 20.0595V17.9805H13.1079Z" fill="#E59600"/>
<path d="M19.6846 10.7855L9.32678 12.0458C8.21017 12.1812 7.41438 13.2666 7.56021 14.4561C7.70395 15.6456 8.73723 16.5081 9.85383 16.3727L20.2116 15.1123C21.3282 14.9769 22.124 13.8916 21.9782 12.702C21.8345 11.5125 20.8012 10.6501 19.6846 10.7855Z" fill="#E59600"/>
<path d="M13.599 3.95593C10.2992 4.35799 7.67431 8.2557 8.29303 13.3325C8.90758 18.3802 12.3574 20.4946 15.5635 20.1051C18.7696 19.7155 21.6132 16.8365 20.9986 11.7868C20.3799 6.70995 16.8967 3.55595 13.599 3.95593Z" fill="#FFCA28"/>
<path d="M16.4683 17.4405C16.5141 18.0196 16.0079 18.1801 15.3704 18.2301C14.733 18.28 14.208 18.1863 14.1622 17.6217C14.1163 17.0259 14.6038 16.6176 15.2392 16.5676C15.8767 16.5176 16.4204 16.8343 16.4683 17.4405Z" fill="#795548"/>
<path d="M15.6454 14.6704C15.6246 14.6642 15.6038 14.6621 15.5829 14.6621L14.2413 14.8246C14.2205 14.8288 14.2018 14.8371 14.183 14.8475C14.0663 14.9121 14.0163 15.0454 14.0893 15.1725C14.1622 15.2996 14.4747 15.6433 15.0142 15.5787C15.5517 15.5141 15.7725 15.1038 15.8142 14.9642C15.8537 14.8225 15.7725 14.7059 15.6454 14.6704Z" fill="#E59600"/>
<path d="M11.6892 14.3863C12.2021 14.3246 12.5661 13.8441 12.5023 13.3129C12.4385 12.7817 11.9709 12.401 11.458 12.4626C10.9451 12.5243 10.581 13.0048 10.6449 13.536C10.7087 14.0672 11.1762 14.4479 11.6892 14.3863Z" fill="#404040"/>
<path d="M17.8913 13.6402C18.4042 13.5785 18.7683 13.098 18.7045 12.5668C18.6406 12.0356 18.1731 11.6549 17.6602 11.7165C17.1472 11.7782 16.7832 12.2587 16.847 12.7899C16.9108 13.3211 17.3784 13.7018 17.8913 13.6402Z" fill="#404040"/>
<path d="M12.744 11.528C12.5399 11.3156 12.0878 11.0239 11.2941 11.1177C10.5004 11.2135 10.1317 11.603 9.98169 11.8593C9.91503 11.9718 9.95044 12.0884 10.0129 12.1551C10.0713 12.2155 10.2275 12.2613 10.3838 12.1863C10.54 12.1114 10.8421 11.9072 11.3795 11.8385C11.917 11.778 12.2587 11.9051 12.4274 11.9405C12.5982 11.9759 12.7399 11.8968 12.7815 11.8239C12.8295 11.7447 12.8357 11.6218 12.744 11.528Z" fill="#6D4C41"/>
<path d="M18.948 10.782C18.7439 10.5695 18.2918 10.2778 17.4981 10.3716C16.7044 10.4674 16.3357 10.857 16.1877 11.1132C16.1211 11.2257 16.1565 11.3423 16.219 11.409C16.2773 11.4694 16.4336 11.5153 16.5919 11.4403C16.7502 11.3653 17.0502 11.1611 17.5877 11.0924C18.1251 11.0319 18.4668 11.159 18.6355 11.1944C18.8064 11.2298 18.948 11.1507 18.9897 11.0778C19.0334 10.9986 19.0376 10.8757 18.948 10.782Z" fill="#6D4C41"/>
<path d="M21.5428 5.69081C20.9949 5.0471 19.845 4.23673 18.9075 4.28881C18.6492 3.41385 17.5993 2.77222 16.6389 2.59306C14.0369 2.10559 12.5141 3.19303 11.6975 3.77842C11.5267 3.89924 10.4309 4.69503 9.55177 4.32839C9.00179 4.09923 8.9143 3.30344 8.9143 3.30344C8.9143 3.30344 7.3748 4.1159 8.13517 5.76164C7.58312 5.85122 6.88524 6.17412 6.59359 7.00116C6.24777 7.98444 6.50609 8.74065 6.68317 9.0948C6.25402 9.55727 5.7603 10.4947 6.30819 11.5634C6.72067 12.3675 8.00601 12.605 8.00601 12.605C8.10393 14.132 8.50182 15.032 8.69764 15.3924C8.73098 15.4549 8.82472 15.4382 8.83305 15.3674C8.92888 14.5945 9.24762 11.8967 9.12887 11.4468C9.12887 11.4468 11.2246 10.7572 13.0912 8.99897C13.4703 8.64066 13.8911 8.32401 14.3473 8.07402C16.7951 6.73451 17.5472 8.41775 17.5472 8.41775C17.5472 8.41775 19.2888 7.85737 20.1304 10.2697C20.4449 11.1739 20.7658 12.6425 21.0053 13.6696C21.022 13.7425 21.1241 13.7446 21.1449 13.6737C21.2741 13.2404 21.5345 12.3759 21.5178 11.5322C21.5116 11.2343 22.2573 10.7489 22.4428 9.44686C22.6948 7.70321 21.9386 6.15537 21.5428 5.69081Z" fill="#543930"/>
<path d="M21.5153 11.5342C21.509 11.2363 22.2548 10.751 22.4402 9.44894C22.4611 9.30937 22.4736 9.16979 22.4861 9.03022C22.5757 7.46363 21.9069 6.11787 21.5424 5.69081C21.0362 5.09709 20.0154 4.35963 19.1238 4.29297C19.0467 4.29297 18.9717 4.29297 18.9008 4.29714C18.9008 4.29714 19.0133 4.69503 18.8883 5.04085C18.7279 5.48666 18.3071 5.64081 18.3071 5.64081C20.8507 7.63029 20.9195 9.54685 21.5153 11.5342Z" fill="url(#paint9_radial_447_1168)"/>
<path d="M12.2096 3.42356C12.0138 3.54855 11.843 3.67146 11.6971 3.77563C11.5263 3.89645 10.4305 4.69224 9.55143 4.3256C9.00979 4.09853 8.91604 3.32982 8.91396 3.30273C8.71814 3.62772 8.27233 5.83802 10.3493 5.72761C11.2451 5.67969 11.6971 4.84015 11.943 4.14227C12.0284 3.89229 12.17 3.52147 12.2096 3.42356Z" fill="url(#paint10_radial_447_1168)"/>
<path d="M16.37 2.54388C17.8012 2.75012 18.5636 3.373 18.9053 4.28754C19.0053 4.55627 19.399 7.12489 14.118 4.79585C12.1535 3.92922 12.5702 3.18551 12.7743 3.08135C13.5743 2.67721 14.7659 2.31473 16.37 2.54388Z" fill="url(#paint11_radial_447_1168)"/>
<path d="M8.906 3.30299C8.90391 3.30508 8.89975 3.30716 8.89558 3.30924C8.72892 3.40507 7.42066 4.21545 8.1352 5.75703L9.63929 5.81536C8.17478 4.65084 8.91433 3.29883 8.91433 3.29883C8.91433 3.29883 8.90808 3.30091 8.906 3.30299Z" fill="url(#paint12_radial_447_1168)"/>
<path d="M9.06198 5.79323L8.13287 5.75781C8.09745 5.76198 7.97662 5.78906 7.91204 5.80573C7.4079 5.93905 6.83502 6.27862 6.59128 6.99733C6.32879 7.77021 6.41421 8.39726 6.56003 8.80348C6.60378 8.94098 6.68086 9.09097 6.68086 9.09097C6.68086 9.09097 7.08084 8.60766 8.14953 8.44934L9.06198 5.79323Z" fill="url(#paint13_radial_447_1168)"/>
<path d="M6.64535 9.13642C6.24537 9.58848 5.74956 10.5509 6.3287 11.5988C6.76617 12.3883 8.00778 12.6029 8.00778 12.6029C8.00778 12.6071 8.25568 12.6487 8.37859 12.6342L8.1536 8.45312C7.58071 8.52395 7.04949 8.76144 6.72451 9.05309C6.72659 9.05934 6.64118 9.13017 6.64535 9.13642Z" fill="url(#paint14_radial_447_1168)"/>
<defs>
<radialGradient id="paint0_radial_447_1168" cx="0" cy="0" r="1" gradientUnits="userSpaceOnUse" gradientTransform="translate(18.0324 17.0773) rotate(-6.96155) scale(4.46781 2.19472)">
<stop offset="0.7275" stopColor="#6D4C41" stopOpacity="0"/>
<stop offset="1" stopColor="#6D4C41"/>
</radialGradient>
<radialGradient id="paint1_radial_447_1168" cx="0" cy="0" r="1" gradientUnits="userSpaceOnUse" gradientTransform="translate(22.3214 15.8865) rotate(147.966) scale(1.32034 0.979544)">
<stop offset="0.6628" stopColor="#6D4C41"/>
<stop offset="1" stopColor="#6D4C41" stopOpacity="0"/>
</radialGradient>
<radialGradient id="paint2_radial_447_1168" cx="0" cy="0" r="1" gradientUnits="userSpaceOnUse" gradientTransform="translate(18.4708 12.5939) rotate(-101.239) scale(5.7995 4.83385)">
<stop offset="0.7247" stopColor="#6D4C41" stopOpacity="0"/>
<stop offset="1" stopColor="#6D4C41"/>
</radialGradient>
<radialGradient id="paint3_radial_447_1168" cx="0" cy="0" r="1" gradientUnits="userSpaceOnUse" gradientTransform="translate(11.01 13.5041) rotate(-92.6767) scale(5.79958 4.83349)">
<stop offset="0.7247" stopColor="#6D4C41" stopOpacity="0"/>
<stop offset="1" stopColor="#6D4C41"/>
</radialGradient>
<radialGradient id="paint4_radial_447_1168" cx="0" cy="0" r="1" gradientUnits="userSpaceOnUse" gradientTransform="translate(12.515 17.7509) rotate(173.038) scale(4.46781 2.19472)">
<stop offset="0.7275" stopColor="#6D4C41" stopOpacity="0"/>
<stop offset="1" stopColor="#6D4C41"/>
</radialGradient>
<radialGradient id="paint5_radial_447_1168" cx="0" cy="0" r="1" gradientUnits="userSpaceOnUse" gradientTransform="translate(8.06485 17.628) rotate(18.1197) scale(1.32038 0.979572)">
<stop offset="0.6628" stopColor="#6D4C41"/>
<stop offset="1" stopColor="#6D4C41" stopOpacity="0"/>
</radialGradient>
<linearGradient id="paint6_linear_447_1168" x1="5.0832" y1="16.9799" x2="5.0832" y2="10.6839" gradientUnits="userSpaceOnUse">
<stop offset="0.5" stopColor="#FFCA28"/>
<stop offset="1" stopColor="#FFB300"/>
</linearGradient>
<linearGradient id="paint7_linear_447_1168" x1="24.9618" y1="16.8362" x2="24.9618" y2="10.7875" gradientUnits="userSpaceOnUse">
<stop offset="0.5" stopColor="#FFCA28"/>
<stop offset="1" stopColor="#FFB300"/>
</linearGradient>
<linearGradient id="paint8_linear_447_1168" x1="15.0127" y1="18.7497" x2="15.0127" y2="28.1962" gradientUnits="userSpaceOnUse">
<stop stopColor="#F78C1F"/>
<stop offset="0.481" stopColor="#F47F12"/>
<stop offset="0.998" stopColor="#EF6C00"/>
</linearGradient>
<radialGradient id="paint9_radial_447_1168" cx="0" cy="0" r="1" gradientUnits="userSpaceOnUse" gradientTransform="translate(17.7803 9.59725) rotate(65.1264) scale(6.79781 5.04376)">
<stop offset="0.6985" stopColor="#6D4C41" stopOpacity="0"/>
<stop offset="1" stopColor="#6D4C41"/>
</radialGradient>
<radialGradient id="paint10_radial_447_1168" cx="0" cy="0" r="1" gradientUnits="userSpaceOnUse" gradientTransform="translate(10.3042 3.04193) rotate(21.2407) scale(1.78247 2.11334)">
<stop offset="0.58" stopColor="#6D4C41"/>
<stop offset="1" stopColor="#6D4C41" stopOpacity="0"/>
</radialGradient>
<radialGradient id="paint11_radial_447_1168" cx="0" cy="0" r="1" gradientUnits="userSpaceOnUse" gradientTransform="translate(14.6503 5.77216) rotate(-164.148) scale(5.57477 3.13278)">
<stop offset="0.6985" stopColor="#6D4C41" stopOpacity="0"/>
<stop offset="1" stopColor="#6D4C41"/>
</radialGradient>
<radialGradient id="paint12_radial_447_1168" cx="0" cy="0" r="1" gradientUnits="userSpaceOnUse" gradientTransform="translate(9.79045 4.7407) rotate(-6.96155) scale(1.63601 2.00141)">
<stop offset="0.7016" stopColor="#6D4C41" stopOpacity="0"/>
<stop offset="1" stopColor="#6D4C41"/>
</radialGradient>
<radialGradient id="paint13_radial_447_1168" cx="0" cy="0" r="1" gradientUnits="userSpaceOnUse" gradientTransform="translate(9.91713 7.63599) rotate(-171.9) scale(3.06837 2.87158)">
<stop offset="0.6605" stopColor="#6D4C41" stopOpacity="0"/>
<stop offset="1" stopColor="#6D4C41"/>
</radialGradient>
<radialGradient id="paint14_radial_447_1168" cx="0" cy="0" r="1" gradientUnits="userSpaceOnUse" gradientTransform="translate(9.55318 10.667) rotate(0.876644) scale(3.22153 4.52702)">
<stop offset="0.5981" stopColor="#6D4C41" stopOpacity="0"/>
<stop offset="1" stopColor="#6D4C41"/>
</radialGradient>
</defs>
</svg>
