<svg width="30" height="30" viewBox="0 0 30 30" fill="none" xmlns="http://www.w3.org/2000/svg">
<path d="M16.9932 6.37979V2.63973C16.9932 2.56055 16.9307 2.49805 16.8515 2.49805H15.0013H13.151C13.0719 2.49805 13.0094 2.56055 13.0094 2.63973V6.37979C13.0094 6.45896 12.9448 6.52147 12.8677 6.52147L10.9591 6.5173C10.8383 6.5173 10.7716 6.6569 10.8508 6.75067L14.8929 10.8178C14.9492 10.8866 15.0534 10.8866 15.1117 10.8178L19.1539 6.75067C19.231 6.65899 19.1643 6.5173 19.0455 6.5173L17.137 6.52147C17.0557 6.52147 16.9932 6.45688 16.9932 6.37979Z" fill="#F44336"/>
<path d="M26.1777 27.5115H3.82487C3.25397 27.5115 3.02686 27.1552 3.02686 26.7135V12.3429C3.02686 11.9012 3.38315 11.5449 3.82487 11.5449H26.1756C26.6173 11.5449 26.9736 11.9012 26.9736 12.3429V26.7114C26.9757 27.1531 26.6173 27.5115 26.1777 27.5115Z" fill="white"/>
<path d="M26.1422 12.3784V26.676H3.86029V12.3784H26.1422ZM26.1777 11.5449H3.82487C3.38315 11.5449 3.02686 11.9012 3.02686 12.3429V26.7114C3.02686 27.1531 3.25397 27.5094 3.82487 27.5094H26.1756C26.6173 27.5094 26.9736 27.1531 26.9736 26.7114V12.3429C26.9757 11.9033 26.6173 11.5449 26.1777 11.5449Z" fill="#6FBFF0"/>
<path d="M19.9997 18.0109L26.0755 12.556C26.1984 12.4539 26.4359 12.3998 26.4359 12.3998C26.4359 12.3998 26.1567 12.0977 25.7921 12.381L16.2513 19.9528C15.8846 20.2445 15.445 20.3945 15.0012 20.4091C14.5574 20.3945 14.1177 20.2445 13.751 19.9528L4.21024 12.3831C3.84561 12.0977 3.56641 12.4019 3.56641 12.4019C3.56641 12.4019 3.80394 12.4581 3.92687 12.5581L9.93179 17.9484L3.7706 26.5745C3.66434 26.6932 3.95395 26.8828 4.0873 26.7537L10.8152 18.7422L13.2864 20.9613C13.7739 21.3988 14.3844 21.6259 15.0012 21.6405C15.6158 21.6259 16.2263 21.4009 16.716 20.9613L19.1725 18.7547L25.7692 26.7537C25.9025 26.8828 26.1922 26.6912 26.0859 26.5745L19.9997 18.0109Z" fill="#6FBFF0"/>
<path fillRule="evenodd" clipRule="evenodd" d="M26.474 12.3637C26.474 12.3637 26.474 12.3638 26.4357 12.3991L26.474 12.3637L26.5351 12.4299L26.4473 12.4499L26.4469 12.45L26.4451 12.4504L26.4379 12.4522C26.4315 12.4538 26.4222 12.4562 26.4106 12.4594C26.3872 12.4658 26.3549 12.4754 26.3189 12.4881C26.2457 12.5139 26.1633 12.5502 26.1093 12.5949L20.0689 18.0179L26.1265 26.5413C26.1668 26.5875 26.1683 26.6429 26.1474 26.6903C26.1276 26.7353 26.0881 26.7733 26.0444 26.8C25.9603 26.8514 25.8249 26.8796 25.7327 26.7904L25.7307 26.7884L19.1667 18.8291L16.7506 20.9994C16.2513 21.4476 15.6288 21.6771 15.0022 21.6919L14.9997 21.692C14.371 21.6771 13.7485 21.4455 13.2514 20.9994L10.8203 18.8163L4.12528 26.7886L4.12335 26.7904C4.03141 26.8795 3.89606 26.8521 3.81183 26.8009C3.76804 26.7743 3.72852 26.7362 3.70863 26.6911C3.68769 26.6435 3.6894 26.588 3.72952 26.5414L9.86212 17.9554L3.89285 12.5971C3.8386 12.5533 3.75607 12.5169 3.6829 12.4909C3.64684 12.4781 3.61444 12.4683 3.59108 12.4617C3.57941 12.4584 3.57005 12.4559 3.56367 12.4543L3.55644 12.4524L3.55466 12.452L3.55426 12.4519L3.46777 12.4314L3.52783 12.366L3.56621 12.4012C3.52783 12.366 3.52781 12.366 3.52783 12.366L3.52804 12.3658L3.52835 12.3654L3.52929 12.3644L3.53239 12.3612C3.53501 12.3586 3.53871 12.3549 3.54345 12.3505C3.55292 12.3417 3.56661 12.3298 3.58415 12.3166C3.61908 12.2902 3.67012 12.258 3.73419 12.2356C3.86519 12.1898 4.04495 12.1871 4.24215 12.3414L4.24242 12.3416L13.7832 19.9113C14.1402 20.1954 14.5684 20.3418 15.001 20.3563C15.4336 20.3418 15.8617 20.1954 16.2187 19.9114L25.7595 12.3396L25.7599 12.3392C25.9571 12.186 26.1368 12.1888 26.2677 12.2343C26.3317 12.2565 26.3827 12.2885 26.4177 12.3147C26.4352 12.3278 26.4489 12.3397 26.4584 12.3484C26.4631 12.3528 26.4668 12.3564 26.4694 12.359L26.4725 12.3622L26.4735 12.3632L26.4738 12.3635L26.474 12.3637ZM3.67689 12.3789C3.7021 12.3628 3.733 12.3464 3.76859 12.3339C3.86832 12.2991 4.01043 12.2924 4.1778 12.4234C4.17776 12.4233 4.17784 12.4234 4.1778 12.4234L13.7184 19.9929C14.0943 20.2919 14.5449 20.4456 14.9993 20.4605L15.001 20.4606L15.0027 20.4605C15.4571 20.4456 15.9076 20.2919 16.2836 19.9929L25.8239 12.4215C25.8239 12.4214 25.824 12.4214 25.8241 12.4213C25.9914 12.2914 26.1336 12.298 26.2335 12.3327C26.2685 12.3449 26.299 12.3608 26.3239 12.3765C26.3114 12.3805 26.2981 12.385 26.2843 12.3898C26.2083 12.4166 26.1109 12.4581 26.042 12.5153L19.9301 18.0025L26.0451 26.6066L26.0472 26.6089C26.0578 26.6205 26.0594 26.6316 26.0521 26.6482C26.0434 26.6679 26.0221 26.6916 25.99 26.7112C25.9235 26.7519 25.8487 26.7554 25.8071 26.7174L19.1779 18.679L16.681 20.9219C16.681 20.9219 16.681 20.9218 16.681 20.9219C16.2013 21.3526 15.6033 21.5732 15.001 21.5878C14.3966 21.5732 13.7987 21.3505 13.321 20.9219C13.321 20.9219 13.321 20.9219 13.321 20.9219L10.8098 18.6668L4.04914 26.7172C4.00736 26.7556 3.9324 26.7523 3.86597 26.7119C3.83397 26.6924 3.81267 26.6688 3.80398 26.6491C3.79669 26.6325 3.79821 26.6209 3.80922 26.6086L3.81113 26.6064L10.0011 17.9401L3.96147 12.5187L3.95955 12.5171C3.89085 12.4612 3.79368 12.4197 3.71779 12.3927C3.70351 12.3877 3.68978 12.383 3.67689 12.3789Z" fill="#6FBFF0"/>
</svg>
