<svg width="30" height="30" viewBox="0 0 30 30" fill="none" xmlns="http://www.w3.org/2000/svg">
<path d="M5.08378 8.27734C5.08378 8.27734 3.73986 8.38361 3.56067 8.68573C3.3794 8.98785 3.36898 9.45249 3.36898 9.96297C3.36898 10.4755 3.34814 11.6507 3.34814 11.6507L3.66902 12.3404C3.66902 12.3404 3.72944 21.131 3.72944 21.404C3.72944 21.6749 3.72944 22.0062 4.12116 22.2166C4.51287 22.427 14.4683 27.236 14.7787 27.3652C15.2475 27.5589 15.4705 27.486 15.4705 27.486L26.5323 8.98577C26.5323 8.98577 26.4969 8.47945 26.0364 8.3586C25.7718 8.29193 5.08378 8.27734 5.08378 8.27734Z" fill="#F5B03E"/>
<path d="M15.3522 14.3591C15.1834 14.8237 15.2605 19.6285 15.2897 23.1227C15.3188 26.6148 15.2001 27.3378 15.2897 27.4587C15.3792 27.5795 15.623 27.4628 16.3127 27.1565C17.5941 26.5898 23.749 23.5436 24.2012 23.2727C24.6533 23.0019 25.7576 22.4414 25.9389 22.1392C26.1202 21.8371 26.2181 19.0264 26.2785 16.7698C26.339 14.5112 26.3994 12.7047 26.3994 12.7047L26.6702 11.8921C26.6702 11.8921 26.6119 9.69602 26.6015 9.45432C26.5827 9.05427 26.539 8.848 26.4369 8.898C26.291 8.96676 25.0742 9.9648 21.853 11.5317C19.8298 12.513 15.4688 14.0382 15.3522 14.3591Z" fill="#E07F14"/>
<path d="M15.3809 4.00089C14.4787 3.95922 12.0097 5.38648 9.63021 6.16783C7.25075 6.94918 3.65863 8.52021 3.62738 8.61189C3.59821 8.70148 5.07339 9.36198 6.01518 9.81412C7.13407 10.3496 11.4054 12.3728 12.1868 12.7041C12.9702 13.0354 14.8371 13.8105 15.1372 13.7875C15.558 13.7584 19.5335 12.1915 21.5505 11.2289C23.5674 10.2663 26.0885 8.77441 26.1219 8.41186C26.1364 8.24934 22.4131 6.85959 20.5566 6.0199C16.9728 4.39678 16.0414 4.03215 15.3809 4.00089Z" fill="#FDD717"/>
<path d="M3.35895 12.036C3.39021 12.4277 3.60482 12.5673 4.15072 12.8048C4.69662 13.0422 15.0167 18.4024 15.2542 18.4024C15.4917 18.4024 15.5626 17.5524 15.3021 17.5753C15.1604 17.5878 11.7704 15.9775 8.60336 14.3693C5.91552 13.0068 3.34229 11.6465 3.34229 11.6465L3.35895 12.036Z" fill="#E37D14"/>
<path d="M26.672 11.875C26.672 11.875 15.6519 17.4789 15.5435 17.533C15.4352 17.5872 15.2622 17.5685 15.2622 17.5685L15.2539 18.4038C15.2539 18.4038 15.356 18.4267 15.4706 18.3913C15.5373 18.3705 26.3532 12.7729 26.4011 12.7562C26.4491 12.7395 26.6574 12.6145 26.7012 12.35C26.7387 12.1375 26.672 11.875 26.672 11.875Z" fill="#BA5E0D"/>
<path d="M7.68035 21.9648L9.83687 25.1735L10.7807 25.4965C10.7807 25.4965 10.8578 21.996 10.8891 19.4019C10.9328 15.6119 10.9162 12.1552 10.9703 11.9593C11.0599 11.628 15.2542 10.2675 15.2542 10.2675C15.2542 10.2675 19.9923 11.7531 20.1423 12.0844C20.209 12.2302 20.1569 14.6847 20.1423 17.5455C20.1236 21.1584 20.1298 25.3298 20.1298 25.3298C20.1298 25.3298 20.6195 25.3277 20.6778 25.1464C20.7382 24.9651 20.9799 23.567 20.9799 23.567L22.8177 11.3176L23.7511 10.1133L22.4551 7.64629L17.1378 5.0293L15.3105 5.43977L13.3331 5.13764L7.06152 9.64446L7.79286 11.128L9.58684 12.0427L7.68035 21.9648Z" fill="#AF0F1B"/>
<path d="M10.282 11.6891C10.3508 11.7641 10.2383 25.245 10.0987 25.2763C9.98831 25.3034 7.47803 24.1824 7.47803 24.0678C7.47803 23.9532 7.6801 11.0703 7.6801 11.0703C7.6801 11.0703 10.0779 11.4599 10.282 11.6891Z" fill="#FF2A23"/>
<path d="M20.6858 11.9587C20.5713 12.2109 20.6379 25.2021 20.6379 25.2021C20.6379 25.2021 21.2108 24.8854 21.9483 24.5312C22.6816 24.179 23.2086 23.9603 23.2545 23.7769C23.3003 23.5935 23.3815 10.7461 23.3815 10.7461L20.6858 11.9587Z" fill="#DC0D28"/>
<path d="M15.2578 4.63477C14.5641 4.63477 13.7975 4.83267 13.5746 5.41389C13.3517 5.99511 13.3017 6.85965 13.3017 7.50545C13.3017 8.12417 13.2017 9.70742 15.1078 9.68242C17.014 9.65742 17.0702 8.95121 17.0994 7.39296C17.1244 6.09302 16.9515 5.46181 16.7786 5.19099C16.6244 4.94725 16.112 4.63477 15.2578 4.63477Z" fill="#FF2A23"/>
<path d="M14.1563 7.85126C14.5896 7.87625 14.775 6.92422 15.1083 6.40341C15.4416 5.88469 15.7895 5.53679 15.6645 5.26597C15.5624 5.04099 14.6562 4.96807 14.1667 5.64929C13.8229 6.13051 13.7625 7.82834 14.1563 7.85126Z" fill="#FCC9D2"/>
<path d="M16.9458 5.08704C16.9458 5.08704 17.5604 5.71212 17.7208 6.93728C17.8812 8.16243 17.6958 9.11463 17.6958 9.11463C17.6958 9.11463 20.7498 9.02295 21.8039 9.22506C22.8434 9.42717 23.2059 9.88556 23.2059 10.2189C23.2059 10.5523 22.5226 10.8211 21.8289 10.7711C21.1352 10.7211 20.6664 10.6836 20.5789 10.8586C20.4914 11.0336 20.6164 11.3045 21.581 11.3774C22.5455 11.4524 23.66 11.3149 24.0058 10.1148C24.3517 8.91461 24.3642 6.83518 24.2412 5.33707C24.1183 3.83897 23.8475 2.98261 23.1767 2.65757C22.4705 2.31794 20.7019 2.26169 19.0311 3.20139C17.3604 4.14109 16.9458 5.08704 16.9458 5.08704Z" fill="#FF2A23"/>
<path d="M20.4069 3.66263C20.1902 3.38348 19.4923 3.39181 19.1194 3.82304C18.7236 4.28135 18.6361 6.02501 19.1444 6.125C19.7194 6.2375 19.6152 5.29588 20.036 4.71466C20.4485 4.14594 20.6173 3.93553 20.4069 3.66263Z" fill="#FCC9D2"/>
<path d="M13.4133 5.14716C13.4133 5.14716 11.0739 2.41974 8.40109 2.46141C6.79284 2.48641 6.38453 3.41361 6.29703 3.79699C6.20954 4.18038 5.5429 7.99336 6.43244 10.0582C7.32198 12.123 9.16771 11.5876 9.45728 11.5209C9.82809 11.4334 10.6176 11.1625 10.5426 10.8771C10.4676 10.5916 7.84487 11.6188 7.81987 10.4437C7.79487 9.26852 9.67602 9.1435 10.5426 9.1185C11.4093 9.09349 12.8946 9.29144 12.8946 9.29144C12.8946 9.29144 12.6342 7.86834 12.8071 6.85363C12.98 5.83892 13.4133 5.14716 13.4133 5.14716Z" fill="#FF2A23"/>
<path d="M7.68475 3.45238C7.35143 3.7982 7.21394 5.79185 7.42434 6.78138C7.63475 7.77091 7.82016 8.19172 8.25347 8.10631C8.61595 8.0334 8.83469 6.09183 9.00759 5.40853C9.193 4.6794 9.65131 3.90444 9.4659 3.56488C9.18259 3.04407 8.03265 3.09199 7.68475 3.45238Z" fill="#FCC9D2"/>
</svg>
