<svg width="30" height="30" viewBox="0 0 30 30" fill="none" xmlns="http://www.w3.org/2000/svg">
<path d="M15.0006 27.5019C16.3915 27.5019 17.5192 26.8369 17.5192 26.0166C17.5192 25.1963 16.3915 24.5312 15.0006 24.5312C13.6096 24.5312 12.4819 25.1963 12.4819 26.0166C12.4819 26.8369 13.6096 27.5019 15.0006 27.5019Z" fill="#424242"/>
<path d="M15.0011 2.5C10.6088 2.5 7.0459 5.76499 7.0459 9.7905C7.0459 10.8406 7.3626 11.9637 7.82725 12.9534C8.47941 14.3452 9.18992 15.3745 9.39828 15.7537C9.97752 16.808 9.89417 17.9186 10.0546 18.6145C10.3567 19.9147 11.261 20.3856 14.999 20.3856C18.7369 20.3856 19.5412 19.9376 19.8767 18.7395C20.1059 17.9249 19.8829 17.0352 20.4601 15.9829C20.6684 15.6037 21.5165 14.3473 22.1707 12.9534C22.6354 11.9637 22.9521 10.8406 22.9521 9.7905C22.9562 5.76499 19.3933 2.5 15.0011 2.5Z" fill="#FFD600"/>
<path d="M15.0011 20.5438C17.5258 20.5438 19.5725 20.1278 19.5725 19.6147C19.5725 19.1015 17.5258 18.6855 15.0011 18.6855C12.4764 18.6855 10.4297 19.1015 10.4297 19.6147C10.4297 20.1278 12.4764 20.5438 15.0011 20.5438Z" fill="#B26500"/>
<path d="M15.0011 20.5438C17.5258 20.5438 19.5725 20.1278 19.5725 19.6147C19.5725 19.1015 17.5258 18.6855 15.0011 18.6855C12.4764 18.6855 10.4297 19.1015 10.4297 19.6147C10.4297 20.1278 12.4764 20.5438 15.0011 20.5438Z" fill="#B26500"/>
<path d="M15.001 20.0419C16.8407 20.0419 18.3321 19.8497 18.3321 19.6127C18.3321 19.3757 16.8407 19.1836 15.001 19.1836C13.1613 19.1836 11.6699 19.3757 11.6699 19.6127C11.6699 19.8497 13.1613 20.0419 15.001 20.0419Z" fill="#FFA000"/>
<path fillRule="evenodd" clipRule="evenodd" d="M12.518 13.5658C12.5419 13.5096 12.563 13.46 12.5789 13.4199L12.9661 13.5738C12.9442 13.6289 12.9189 13.6884 12.8923 13.7511C12.8319 13.8931 12.7644 14.052 12.7121 14.2163C12.6753 14.3318 12.6509 14.4367 12.6438 14.5243C12.6365 14.6148 12.6498 14.6632 12.6628 14.6856C12.818 14.9522 13.0669 15.1447 13.3338 15.3511C13.3726 15.3812 13.4119 15.4116 13.4513 15.4425C13.733 15.6636 14.0661 15.9449 14.0661 16.38C14.0661 16.8941 13.8829 17.9541 13.7061 18.8629C13.6167 19.3223 13.5274 19.7508 13.4604 20.0644C13.4269 20.2212 13.399 20.3494 13.3794 20.4384C13.3697 20.4829 13.362 20.5176 13.3567 20.5412L13.3487 20.5774C13.3487 20.5774 13.3486 20.5776 13.1454 20.5319C12.9421 20.4863 12.9421 20.4863 12.9421 20.4862L12.95 20.4508C12.9552 20.4275 12.9628 20.3931 12.9725 20.349C12.9919 20.2606 13.0197 20.1333 13.053 19.9774C13.1196 19.6654 13.2084 19.2396 13.2971 18.7834C13.4765 17.861 13.6495 16.8451 13.6495 16.38C13.6495 16.1736 13.4982 16.009 13.1941 15.7703C13.1592 15.7429 13.1226 15.7147 13.0847 15.6857C12.8229 15.4845 12.5024 15.2382 12.3029 14.8954M12.518 13.5658C12.4555 13.7133 12.3736 13.9061 12.3151 14.0899L12.518 13.5658ZM12.3151 14.0899C12.2738 14.2197 12.2392 14.3585 12.2285 14.4908L12.3151 14.0899ZM12.2285 14.4908C12.2181 14.6202 12.2285 14.7678 12.3029 14.8954L12.2285 14.4908Z" fill="#B26500"/>
<path fillRule="evenodd" clipRule="evenodd" d="M16.9025 13.469C16.9025 13.4691 16.9025 13.4691 17.0913 13.381C17.2801 13.2929 17.2801 13.2929 17.2801 13.293L17.2803 13.2933L17.2807 13.2941L17.2819 13.2968L17.2862 13.3063C17.2899 13.3145 17.2952 13.3262 17.3018 13.3412C17.3149 13.371 17.3331 13.4138 17.3543 13.4663C17.3966 13.571 17.4511 13.7162 17.4994 13.877C17.5474 14.0369 17.591 14.2178 17.6088 14.3926C17.6261 14.5628 17.6217 14.7521 17.5506 14.913L17.5505 14.9133C17.4953 15.0377 17.3847 15.1579 17.2757 15.2594C17.1613 15.3659 17.0254 15.4726 16.8948 15.5684C16.7636 15.6646 16.6341 15.7526 16.5315 15.8213C16.5029 15.8405 16.4773 15.8575 16.4548 15.8726C16.3925 15.9141 16.3534 15.9402 16.3374 15.9525C16.3371 15.9529 16.3272 15.963 16.3131 15.995C16.2973 16.0311 16.2813 16.0832 16.2673 16.1534C16.2393 16.2941 16.2237 16.4833 16.2195 16.7103C16.2113 17.1627 16.2488 17.7335 16.3037 18.2981C16.3583 18.8613 16.4296 19.4123 16.4873 19.8229C16.5161 20.0281 16.5415 20.1979 16.5596 20.3164C16.5687 20.3756 16.576 20.422 16.581 20.4535L16.5867 20.4893L16.5886 20.5011C16.5886 20.5011 16.5886 20.5012 16.383 20.5348C16.1774 20.5683 16.1774 20.5683 16.1774 20.5683L16.1753 20.5555L16.1695 20.5187C16.1644 20.4866 16.157 20.4395 16.1478 20.3795C16.1294 20.2596 16.1038 20.088 16.0747 19.8809C16.0165 19.4668 15.9444 18.9095 15.889 18.3384C15.8336 17.7687 15.7943 17.1791 15.803 16.7027C15.8073 16.4652 15.8237 16.2478 15.8587 16.072C15.8762 15.9841 15.8996 15.9004 15.9317 15.8273C15.9631 15.7559 16.009 15.6805 16.0795 15.6253L16.0797 15.6251C16.1085 15.6026 16.1696 15.5619 16.2401 15.5149C16.2594 15.502 16.2794 15.4887 16.2996 15.4751C16.4007 15.4075 16.5243 15.3234 16.6483 15.2325C16.7729 15.141 16.8943 15.0452 16.9918 14.9544C17.0946 14.8587 17.1507 14.7868 17.1696 14.7445C17.1974 14.6814 17.2088 14.5779 17.1943 14.4347C17.1802 14.2961 17.1443 14.143 17.1004 13.9969C17.0568 13.8517 17.007 13.719 16.9679 13.6222C16.9485 13.574 16.9318 13.5351 16.9202 13.5085C16.9144 13.4952 16.9098 13.485 16.9068 13.4783L16.9034 13.471L16.9026 13.4693L16.9025 13.469Z" fill="#B26500"/>
<path fillRule="evenodd" clipRule="evenodd" d="M14.3252 9.12842C14.4498 8.9267 14.6445 8.79385 14.9056 8.79693C15.1443 8.79973 15.3383 8.89747 15.479 9.06539C15.6134 9.22571 15.6906 9.4391 15.7322 9.66809C15.8155 10.1259 15.7696 10.721 15.6537 11.3151C15.5455 11.8698 15.3727 12.441 15.1699 12.9275C15.2349 13.073 15.3022 13.206 15.3706 13.3226C15.4928 13.5311 15.6074 13.6679 15.7024 13.7356C15.7481 13.7681 15.7796 13.7777 15.7976 13.7796C15.8116 13.7811 15.8267 13.7794 15.8488 13.7652C15.9092 13.7262 16.0025 13.6305 16.1199 13.4667C16.2334 13.3082 16.3575 13.1032 16.4832 12.8662C16.5387 12.7615 16.5942 12.6512 16.6488 12.5367C16.5554 12.1559 16.4536 11.6927 16.3804 11.2282C16.2937 10.6779 16.2438 10.1067 16.3054 9.66529C16.3361 9.44546 16.3972 9.23548 16.5142 9.07596C16.6391 8.90577 16.8212 8.80316 17.0531 8.80316C17.3015 8.80316 17.5033 8.89736 17.6406 9.07653C17.7697 9.24508 17.825 9.46736 17.8406 9.69878C17.8718 10.1621 17.7494 10.7622 17.563 11.3549C17.4321 11.7707 17.2662 12.1936 17.0889 12.5795C17.0946 12.6019 17.1002 12.624 17.1057 12.6456C17.1578 12.8484 17.2045 13.0172 17.2381 13.1352C17.2549 13.1942 17.2684 13.2404 17.2777 13.2718C17.28 13.2797 17.2821 13.2866 17.2839 13.2926C17.2856 13.2985 17.2871 13.3034 17.2883 13.3074L17.291 13.3163L17.2917 13.3184L17.2918 13.3189C17.2918 13.3189 17.2919 13.319 17.0927 13.38C16.8935 13.441 16.8934 13.4409 16.8934 13.4409L16.8924 13.4374L16.8894 13.4276C16.8868 13.419 16.883 13.4064 16.8782 13.3901C16.8685 13.3575 16.8546 13.3099 16.8374 13.2494C16.8283 13.2174 16.8182 13.1818 16.8074 13.143C16.6902 13.3581 16.5719 13.5512 16.4586 13.7094C16.3349 13.882 16.2039 14.0321 16.0742 14.1156C15.9761 14.1787 15.8664 14.206 15.7532 14.1939C15.6441 14.1822 15.5457 14.1355 15.4607 14.075C15.2943 13.9565 15.1439 13.7597 15.0112 13.5333C14.9882 13.4941 14.9654 13.4534 14.9428 13.4114C14.8842 13.5216 14.8238 13.6241 14.7622 13.7168C14.638 13.9039 14.4995 14.0658 14.3487 14.1646C14.1404 14.3012 13.9168 14.2528 13.7373 14.139C13.5642 14.0293 13.4008 13.8436 13.2525 13.6263C13.1923 13.5381 13.1327 13.4419 13.0743 13.3392C13.0367 13.4276 12.9979 13.5117 12.9579 13.5907L12.5862 13.4026C12.6694 13.238 12.7483 13.0463 12.8208 12.8368C12.6881 12.5423 12.5675 12.2212 12.4668 11.8952C12.2645 11.2403 12.1359 10.5436 12.1614 9.98269C12.1742 9.70293 12.2259 9.43951 12.3406 9.22996C12.4595 9.01281 12.6471 8.85395 12.91 8.80649M13.2684 12.8111C13.4807 12.1468 13.6292 11.3606 13.6775 10.6758C13.712 10.1855 13.697 9.72482 13.6055 9.38893C13.5601 9.2221 13.49 9.06363 13.3774 8.95133C13.2547 8.82896 13.0925 8.77352 12.91 8.80649M13.2684 12.8111C13.3742 13.0311 13.4854 13.2285 13.5966 13.3915C13.7326 13.5907 13.8578 13.7221 13.9604 13.7871C14.0565 13.8481 14.0958 13.8322 14.1203 13.8162C14.2022 13.7624 14.3035 13.6545 14.4151 13.4864C14.5163 13.334 14.6183 13.1439 14.7163 12.9265C14.5685 12.567 14.4385 12.1593 14.3378 11.7481C14.1745 11.0808 14.083 10.3808 14.128 9.83909C14.1503 9.57024 14.2078 9.31848 14.3252 9.12842M14.9449 12.3472C15.0675 11.9927 15.1717 11.6101 15.2448 11.2353C15.3567 10.6614 15.392 10.1257 15.3223 9.74263C15.2875 9.55117 15.2297 9.41658 15.1597 9.33299C15.096 9.257 15.0162 9.2149 14.9007 9.21354C14.8078 9.21245 14.7398 9.25004 14.6797 9.34735C14.6124 9.45632 14.5632 9.63219 14.5432 9.87357C14.5034 10.3523 14.5845 11.0032 14.7425 11.6491C14.8012 11.8887 14.8696 12.1244 14.9449 12.3472ZM13.0095 12.1982C12.958 12.0594 12.9095 11.9168 12.8648 11.7722C12.6698 11.1407 12.5551 10.4956 12.5776 10.0016C12.5889 9.75395 12.634 9.56167 12.7061 9.43005C12.774 9.30606 12.8631 9.23832 12.984 9.2165C13.0291 9.20835 13.0547 9.21791 13.0832 9.24638C13.1219 9.28493 13.1667 9.36311 13.2035 9.49839C13.2766 9.76669 13.2953 10.172 13.2619 10.6465C13.2269 11.1434 13.1367 11.6916 13.0095 12.1982ZM16.9288 11.8944C17.0155 11.6755 17.0958 11.4515 17.1655 11.2298C17.3475 10.6514 17.4508 10.1112 17.4249 9.72678C17.412 9.53437 17.3681 9.406 17.3098 9.32986C17.2596 9.26434 17.1859 9.21981 17.0531 9.21981C16.9605 9.21981 16.9005 9.25372 16.8501 9.32243C16.7919 9.40181 16.7445 9.53313 16.7181 9.72285C16.6654 10.1006 16.7066 10.6214 16.792 11.1633C16.831 11.411 16.8786 11.6591 16.9288 11.8944Z" fill="white"/>
<path d="M19.5623 19.8086C19.5623 19.8086 18.3622 20.3877 15.0013 20.3877C11.6405 20.3877 10.4403 19.8086 10.4403 19.8086C10.4403 19.8086 10.3653 20.8794 10.6133 21.3648C10.9112 21.9481 11.1404 22.1501 11.1404 22.1501L11.2654 22.7439L11.2154 22.9001C11.1509 23.1043 11.1967 23.3292 11.3405 23.4897L11.4488 23.6105L11.5697 24.1813L11.528 24.2959C11.4488 24.5146 11.503 24.7583 11.6655 24.925L11.7447 25.0062L11.8426 25.4729C11.8426 25.4729 12.3385 26.5312 15.0013 26.5312C17.6642 26.5312 18.1601 25.4729 18.1601 25.4729L18.1684 25.4333L18.2226 25.3791C18.3309 25.2729 18.3663 25.1146 18.3142 24.9729L18.283 24.8917L18.4122 24.275L18.6393 24.0355C18.7518 23.9167 18.7768 23.7417 18.7039 23.5959L18.5997 23.3897L18.731 22.7709L18.8143 22.7064C18.9372 22.571 18.9393 22.3668 18.8852 22.2272C18.8435 22.1168 18.8768 21.9918 18.9622 21.9106C19.0935 21.7856 19.2623 21.596 19.3873 21.3606C19.6436 20.8835 19.5623 19.8086 19.5623 19.8086Z" fill="#82AEC0"/>
<path d="M11.1401 22.1511L11.2526 22.7489C12.4651 22.7427 14.0837 22.8031 17.1898 22.3094C17.7502 22.1823 18.4231 21.9302 17.6794 22.0344C17.6794 22.0323 14.8274 22.3052 11.1401 22.1511Z" fill="#2F7889"/>
<path d="M11.5564 24.186C12.898 24.1631 15.6395 24.0298 18.5852 23.3902L18.7164 22.7715C15.6353 23.4714 12.7376 23.5964 11.4355 23.6131L11.5564 24.186Z" fill="#2F7889"/>
<path d="M18.3983 24.2715C15.6714 24.8631 13.1195 25.0152 11.7383 25.0485L11.8279 25.4735C11.8279 25.4735 11.8716 26.7922 14.986 26.7922C18.1004 26.7922 18.1442 25.4735 18.1442 25.4735C18.1442 25.4735 16.8151 25.8527 15.1798 25.6672C15.0131 25.6485 15.011 25.4256 15.1777 25.4048C16.1547 25.2756 17.3213 25.0839 18.2692 24.8881L18.3983 24.2715Z" fill="#2F7889"/>
<path fillRule="evenodd" clipRule="evenodd" d="M19.931 19.645C20.0205 19.8569 19.9213 20.1011 19.7095 20.1906L19.5474 19.8071C19.7095 20.1906 19.7093 20.1907 19.7091 20.1907L19.7088 20.1909L19.708 20.1912L19.706 20.1921L19.7004 20.1943C19.6961 20.1961 19.6903 20.1984 19.6832 20.2012C19.6691 20.2068 19.6494 20.2143 19.6241 20.2234C19.5736 20.2417 19.5007 20.2666 19.4047 20.2959C19.2125 20.3544 18.9277 20.4302 18.5433 20.5053C17.7743 20.6555 16.6078 20.8026 14.9885 20.8026C13.3692 20.8026 12.2087 20.6555 11.4456 20.5051C11.0641 20.43 10.7821 20.3541 10.592 20.2954C10.4969 20.2661 10.4249 20.2411 10.3748 20.2227C10.3498 20.2135 10.3303 20.2059 10.3162 20.2003C10.3092 20.1975 10.3035 20.1952 10.2991 20.1933L10.2936 20.191L10.2915 20.1902L10.2907 20.1898L10.2903 20.1897C10.2902 20.1896 10.29 20.1895 10.4546 19.8071L10.29 20.1895C10.0788 20.0986 9.9812 19.8537 10.0721 19.6425C10.1628 19.4318 10.4068 19.3342 10.6177 19.424C10.6176 19.424 10.6175 19.4239 10.6175 19.4239L10.6176 19.424L10.618 19.4241L10.6182 19.4242L10.6186 19.4244M10.6177 19.424C10.6178 19.424 10.6179 19.4241 10.618 19.4241C10.6189 19.4245 10.6212 19.4254 10.6248 19.4269C10.6319 19.4297 10.6445 19.4346 10.6625 19.4412C10.6986 19.4545 10.7566 19.4748 10.8375 19.4997C10.9994 19.5497 11.2531 19.6185 11.6066 19.6882C12.3134 19.8274 13.4199 19.9699 14.9885 19.9699C16.5571 19.9699 17.6701 19.8274 18.3836 19.688C18.7404 19.6183 18.9975 19.5494 19.1621 19.4993C19.2444 19.4742 19.3035 19.4539 19.3404 19.4405C19.3589 19.4338 19.3718 19.4289 19.3792 19.426C19.383 19.4245 19.3853 19.4236 19.3863 19.4231L19.3859 19.4233L19.3856 19.4234C19.386 19.4233 19.3864 19.4231 19.3867 19.423C19.5983 19.3345 19.8417 19.4337 19.931 19.645" fill="#82AEC0"/>
<path d="M12.059 3.81735C12.8736 3.61736 13.7256 3.71735 14.3089 4.42565C14.4735 4.62564 14.6006 4.86313 14.6297 5.12145C14.6881 5.61934 14.3798 6.09015 14.0131 6.43596C12.9673 7.42341 11.482 7.90255 10.807 9.26498C10.6487 9.58371 10.5237 9.92745 10.2821 10.1878C10.0404 10.4483 9.63834 10.6066 9.32378 10.4399C9.15712 10.3524 9.04254 10.1878 8.9488 10.0233C8.35716 8.96916 8.40091 7.62548 8.92171 6.53387C9.4946 5.3381 10.7508 4.13816 12.059 3.81735Z" fill="#FFFF8D"/>
<path d="M11.3445 20.8211C11.1612 20.7378 11.2341 20.4628 11.4341 20.4774C12.1049 20.5295 13.2465 20.5941 14.7568 20.5941C16.3484 20.5941 17.7484 20.4753 18.565 20.3878C18.767 20.367 18.8441 20.6441 18.6587 20.7295C18.0296 21.0253 16.8776 21.3628 14.9027 21.3628C12.9757 21.3628 11.9132 21.0774 11.3445 20.8211Z" fill="#FFD600"/>
<path d="M12.4878 22.9247C12.3482 22.9747 12.2045 23.0434 12.1336 23.1726C12.1086 23.2205 12.0941 23.2747 12.1045 23.3288C12.1211 23.408 12.1941 23.4642 12.267 23.4997C12.4128 23.5705 12.5774 23.5892 12.7378 23.5913C13.069 23.5955 13.3982 23.533 13.7252 23.4705C13.8231 23.4517 13.9231 23.433 14.0106 23.3851C14.0981 23.3372 14.1731 23.2559 14.1877 23.158C14.2085 23.0268 14.1148 22.8997 14.0002 22.8372C13.6044 22.6185 12.8878 22.7809 12.4878 22.9247Z" fill="#94D1E0"/>
<path d="M12.7988 24.2983C12.6592 24.3483 12.5155 24.417 12.4447 24.5462C12.4197 24.5941 12.4051 24.6482 12.4155 24.7024C12.4322 24.7816 12.5051 24.8378 12.578 24.8732C12.7238 24.9441 12.8884 24.9628 13.0488 24.9649C13.38 24.9691 13.7092 24.9066 14.0363 24.8441C14.1342 24.8253 14.2342 24.8066 14.3217 24.7587C14.4092 24.7107 14.4842 24.6295 14.4987 24.5316C14.5196 24.4003 14.4258 24.2733 14.3112 24.2108C13.9154 23.9941 13.1967 24.1566 12.7988 24.2983Z" fill="#94D1E0"/>
<path d="M12.0866 19.2108C12.2762 19.2295 12.4762 19.2129 12.6366 19.1108C12.797 19.0087 12.8991 18.8004 12.8345 18.6212C12.8012 18.5275 12.7283 18.4525 12.6574 18.3817C12.5012 18.2275 12.3449 18.0734 12.1908 17.9192C12.0179 17.7463 11.845 17.5755 11.6575 17.4192C11.3679 17.1776 10.9784 16.9505 10.5971 17.1276C10.2721 17.2776 10.1951 17.5734 10.3388 17.8838C10.645 18.5358 11.3575 19.1358 12.0866 19.2108Z" fill="#FFFF8D"/>
</svg>
