<svg width="30" height="30" viewBox="0 0 30 30" fill="none" xmlns="http://www.w3.org/2000/svg">
<path d="M17.5775 23.8367C18.0504 23.4722 19.4733 23.4222 20.0774 23.3368C20.4566 23.2826 21.1378 23.2263 21.4294 22.9097C21.9606 22.3347 21.9961 21.7806 21.9377 21.291C21.8752 20.7806 21.7711 20.289 21.9627 19.9807C22.0606 19.8245 22.4731 19.037 21.9794 18.8433C21.7169 18.7391 21.5461 18.8328 20.4524 18.8703C19.9441 18.887 19.5566 18.6933 19.7233 18.4183C19.9087 18.2079 20.7024 18.1183 21.4482 17.8433C21.9752 17.6496 22.2523 17.5308 22.3127 17.0767C22.3502 16.8017 22.1502 16.6392 22.0481 16.2976C21.9544 15.9872 22.044 15.8455 22.1711 15.7205C22.3648 15.531 22.8773 15.2247 22.946 14.6664C23.0606 13.7123 21.469 13.2207 20.9461 12.2311C20.6961 11.7583 20.9086 10.4729 20.9086 10.0542C20.9086 8.35845 20.0607 5.51694 17.3817 3.89412C14.9735 2.43587 11.9528 2.27338 9.21966 2.95667C7.91347 3.28374 6.58855 4.16702 5.72817 4.93989C3.67203 6.78562 3.20747 9.5063 3.05748 10.4812C2.58251 13.5477 3.41163 15.8934 4.60115 17.7767C6.31981 20.4994 8.79259 22.2556 9.17174 23.8201C9.23007 24.0638 9.2759 24.5721 9.2759 25.0096C9.2759 25.9449 9.22382 26.7199 9.16966 27.2865H17.0672C17.0526 25.9783 17.0276 24.2638 17.5775 23.8367Z" fill="url(#paint0_linear_447_1184)"/>
<path d="M23.4983 16.5261C23.3504 16.5261 23.2025 16.4532 23.115 16.3198C22.9755 16.1094 23.0338 15.824 23.2442 15.6844L26.3982 13.6033C26.6086 13.4637 26.894 13.5221 27.0336 13.7325C27.1732 13.9429 27.1148 14.2283 26.9044 14.3679L23.7504 16.449C23.6733 16.5011 23.5858 16.5261 23.4983 16.5261Z" fill="#B0BEC5"/>
<path d="M26.6523 22.1476C26.5648 22.1476 26.4773 22.1226 26.4002 22.0726L23.2462 19.9914C23.0337 19.8519 22.9775 19.5665 23.117 19.3561C23.2566 19.1436 23.542 19.0873 23.7524 19.2269L26.9064 21.308C27.1189 21.4476 27.1752 21.733 27.0356 21.9434C26.946 22.0747 26.8002 22.1476 26.6523 22.1476Z" fill="#B0BEC5"/>
<path d="M23.6005 18.2001C23.3505 18.2001 23.1463 18.0001 23.1422 17.7501C23.138 17.496 23.3401 17.2876 23.5921 17.2835L27.369 17.2168C27.6232 17.2147 27.8315 17.4147 27.8357 17.6668C27.8398 17.9189 27.6377 18.1293 27.3857 18.1334L23.6088 18.2001C23.6067 18.2001 23.6025 18.2001 23.6005 18.2001Z" fill="#B0BEC5"/>
<defs>
<linearGradient id="paint0_linear_447_1184" x1="12.9366" y1="2.56836" x2="12.9366" y2="27.2865" gradientUnits="userSpaceOnUse">
<stop stopColor="#FFCA28"/>
<stop offset="1" stopColor="#FFB300"/>
</linearGradient>
</defs>
</svg>
