<svg width="30" height="30" viewBox="0 0 30 30" fill="none" xmlns="http://www.w3.org/2000/svg">
<path d="M15.8427 3.17159L18.6467 9.56708C18.8613 10.0566 19.3259 10.392 19.8592 10.44L26.6901 11.0524C27.4629 11.1649 27.7712 12.1128 27.2109 12.6586L22.0653 16.9813C21.6487 17.3313 21.4591 17.8812 21.5737 18.4125L23.0694 25.4142C23.2007 26.1829 22.3944 26.7703 21.7028 26.4058L15.7406 22.9143C15.2823 22.6456 14.7157 22.6456 14.2574 22.9143L8.29519 26.4037C7.60564 26.7662 6.79735 26.1808 6.9286 25.4121L8.42435 18.4104C8.53685 17.8791 8.34936 17.3292 7.93271 16.9792L2.78507 12.6607C2.22676 12.1169 2.53508 11.167 3.30587 11.0545L10.1368 10.442C10.6701 10.3941 11.1346 10.0587 11.3492 9.56917L14.1532 3.17367C14.5011 2.47371 15.4969 2.47371 15.8427 3.17159Z" fill="#FDD835"/>
<path d="M15.6387 9.95206L15.1638 5.23981C15.145 4.97732 15.0909 4.52734 15.5117 4.52734C15.845 4.52734 16.0262 5.22106 16.0262 5.22106L17.4511 9.00419C17.9886 10.4437 17.7678 10.9374 17.2491 11.2291C16.6533 11.5624 15.7742 11.302 15.6387 9.95206Z" fill="#FFFF8D"/>
<path d="M21.5153 16.5635L25.6026 13.374C25.8047 13.2053 26.1692 12.9366 25.8776 12.6303C25.6464 12.3887 25.0214 12.7366 25.0214 12.7366L21.4445 14.1344C20.3779 14.5031 19.6696 15.049 19.6071 15.7364C19.5258 16.653 20.3487 17.3593 21.5153 16.5635Z" fill="#F4B400"/>
</svg>
