<svg width="20" height="20" viewBox="0 0 20 20" fill="none" xmlns="http://www.w3.org/2000/svg">
<path d="M9.9974 1.66602C5.40573 1.66602 1.66406 5.40768 1.66406 9.99935C1.66406 14.591 5.40573 18.3327 9.9974 18.3327C14.5891 18.3327 18.3307 14.591 18.3307 9.99935C18.3307 5.40768 14.5891 1.66602 9.9974 1.66602ZM13.9807 8.08268L9.25573 12.8077C9.13906 12.9243 8.98073 12.991 8.81406 12.991C8.6474 12.991 8.48906 12.9243 8.3724 12.8077L6.01406 10.4493C5.7724 10.2077 5.7724 9.80768 6.01406 9.56602C6.25573 9.32435 6.65573 9.32435 6.8974 9.56602L8.81406 11.4827L13.0974 7.19935C13.3391 6.95768 13.7391 6.95768 13.9807 7.19935C14.2224 7.44102 14.2224 7.83268 13.9807 8.08268Z" fill="#2CAAE6"/>
</svg>
