<svg width="220" height="220" viewBox="0 0 220 220" fill="none" xmlns="http://www.w3.org/2000/svg">
<path d="M180.742 117.729C182.264 104.641 196.492 88.6396 190.689 75.7024C184.885 62.7652 163.167 62.0461 152.26 54.2402C141.02 46.1837 133.707 26.347 119.839 24.8172C106.394 23.3343 94.8097 40.8589 81.518 46.5096C68.2264 52.1604 47.1471 48.5181 39.1273 59.125C30.8528 70.0659 40.8302 88.772 39.2577 102.271C37.736 115.359 23.5073 131.36 29.3108 144.298C35.1143 157.235 56.8434 157.946 67.7395 165.76C78.9799 173.816 86.2928 193.653 100.161 195.183C113.605 196.666 125.19 179.141 138.482 173.49C151.773 167.84 172.853 171.482 180.872 160.875C189.147 149.926 179.17 131.228 180.742 117.729Z" fill="#F6F6F6"/>
<path d="M27.9502 159.979C27.5708 159.309 27.4426 158.526 27.5886 157.77C27.7346 157.013 28.1453 156.334 28.7469 155.853C29.3486 155.373 30.1018 155.122 30.8715 155.146C31.6412 155.171 32.3771 155.469 32.947 155.987C33.1422 154.518 33.8881 153.178 35.0339 152.239C36.1796 151.299 37.6395 150.83 39.1181 150.926C40.5966 151.023 41.9833 151.677 42.9975 152.757C44.0117 153.838 44.5775 155.263 44.5805 156.744C44.5788 157.105 44.5447 157.465 44.4787 157.82C44.8132 157.747 45.1547 157.71 45.4972 157.71C46.803 157.71 48.0553 158.229 48.9786 159.152C49.902 160.075 50.4207 161.328 50.4207 162.634C50.4207 163.939 49.902 165.192 48.9786 166.115C48.0553 167.038 46.803 167.557 45.4972 167.557H28.6753C27.7242 167.557 26.8072 167.203 26.1032 166.563C25.3993 165.924 24.9591 165.045 24.8685 164.098C24.7779 163.151 25.0434 162.204 25.6132 161.443C26.183 160.681 27.0163 160.159 27.9502 159.979Z" fill="white"/>
<path d="M45.489 168.624H28.6753C27.5661 168.625 26.4896 168.248 25.6226 167.556C24.7557 166.864 24.1499 165.898 23.9047 164.816C23.6594 163.734 23.7894 162.601 24.2732 161.603C24.757 160.605 25.5659 159.801 26.567 159.323C26.4977 159.015 26.4629 158.701 26.4631 158.386C26.4647 157.244 26.9192 156.149 27.7268 155.341C28.5344 154.534 29.6293 154.079 30.7714 154.078C31.2806 154.077 31.7856 154.168 32.2625 154.346C32.8211 152.833 33.8919 151.563 35.2891 150.757C36.6862 149.95 38.3216 149.659 39.9114 149.932C41.5012 150.205 42.9452 151.027 43.9926 152.254C45.0401 153.48 45.625 155.035 45.6459 156.648C47.2202 156.689 48.715 157.349 49.8066 158.484C50.8982 159.619 51.4987 161.139 51.4781 162.714C51.4574 164.288 50.8174 165.792 49.6964 166.898C48.5755 168.004 47.0639 168.624 45.489 168.624ZM30.7714 156.21C30.1944 156.211 29.6412 156.44 29.233 156.848C28.8248 157.256 28.5949 157.809 28.5938 158.386C28.5932 158.762 28.6908 159.131 28.877 159.457C28.9602 159.605 29.0072 159.77 29.014 159.939C29.0208 160.108 28.9873 160.276 28.9163 160.429C28.8452 160.583 28.7386 160.717 28.6053 160.821C28.472 160.925 28.3159 160.996 28.1498 161.028C27.477 161.159 26.8771 161.536 26.4671 162.085C26.057 162.635 25.8662 163.317 25.9319 163.999C25.9975 164.681 26.3148 165.315 26.822 165.776C27.3292 166.237 27.9899 166.493 28.6753 166.493H45.489C46.0289 166.493 46.5627 166.38 47.0559 166.161C47.5492 165.941 47.9909 165.621 48.3525 165.22C48.7141 164.819 48.9875 164.347 49.155 163.834C49.3225 163.321 49.3804 162.778 49.3249 162.241C49.2694 161.704 49.1018 161.185 48.833 160.717C48.5641 160.248 48.1999 159.842 47.764 159.524C47.3281 159.205 46.8302 158.982 46.3025 158.868C45.7748 158.754 45.2291 158.752 44.7007 158.863C44.5294 158.9 44.3515 158.894 44.183 158.846C44.0145 158.797 43.8606 158.708 43.7351 158.586C43.6095 158.463 43.5159 158.311 43.4626 158.144C43.4094 157.977 43.398 157.799 43.4296 157.626C43.5475 156.999 43.5384 156.354 43.4028 155.73C43.2673 155.107 43.0081 154.516 42.6405 153.995C42.2729 153.473 41.8044 153.03 41.2628 152.692C40.7211 152.355 40.1172 152.129 39.4868 152.029C38.8564 151.928 38.2124 151.956 37.5927 152.109C36.973 152.262 36.3902 152.537 35.8789 152.919C35.3676 153.301 34.938 153.782 34.6157 154.333C34.2933 154.884 34.0847 155.494 34.0022 156.127C33.9768 156.32 33.8991 156.502 33.7776 156.654C33.656 156.805 33.4953 156.921 33.3127 156.988C33.1301 157.055 32.9327 157.071 32.7418 157.033C32.551 156.996 32.374 156.907 32.23 156.777C31.8309 156.413 31.311 156.212 30.7714 156.21Z" fill="#989AA6"/>
<path d="M171.671 137.344C171.184 136.481 171.02 135.473 171.209 134.5C171.397 133.527 171.926 132.653 172.7 132.034C173.475 131.415 174.444 131.093 175.434 131.124C176.425 131.154 177.372 131.537 178.106 132.202C178.354 130.307 179.313 128.577 180.789 127.364C182.265 126.15 184.148 125.544 186.055 125.668C187.962 125.792 189.75 126.638 191.057 128.033C192.363 129.427 193.09 131.267 193.089 133.178C193.087 133.642 193.043 134.105 192.958 134.561C193.386 134.469 193.823 134.422 194.26 134.421C195.942 134.421 197.555 135.089 198.744 136.278C199.933 137.467 200.601 139.08 200.601 140.762C200.601 142.444 199.933 144.057 198.744 145.246C197.555 146.435 195.942 147.103 194.26 147.103H172.606C171.382 147.103 170.201 146.647 169.295 145.824C168.389 145 167.822 143.868 167.706 142.65C167.589 141.431 167.93 140.212 168.664 139.231C169.397 138.251 170.469 137.579 171.671 137.346V137.344Z" fill="white"/>
<path d="M194.26 148.169H172.606C171.226 148.17 169.887 147.695 168.817 146.822C167.747 145.95 167.011 144.735 166.733 143.383C166.456 142.03 166.655 140.624 167.295 139.401C167.936 138.178 168.98 137.214 170.249 136.672C169.988 135.718 170.002 134.709 170.29 133.762C170.579 132.816 171.129 131.97 171.878 131.324C172.627 130.677 173.544 130.256 174.523 130.109C175.501 129.962 176.502 130.095 177.407 130.494C178.044 128.552 179.353 126.901 181.098 125.837C182.842 124.773 184.909 124.367 186.927 124.69C188.945 125.014 190.781 126.046 192.106 127.602C193.431 129.158 194.158 131.135 194.156 133.178C194.156 133.237 194.156 133.296 194.156 133.358H194.262C196.226 133.358 198.11 134.138 199.499 135.527C200.888 136.916 201.669 138.8 201.669 140.764C201.669 142.729 200.888 144.613 199.499 146.002C198.11 147.391 196.226 148.171 194.262 148.171L194.26 148.169ZM175.315 132.182C174.772 132.181 174.237 132.323 173.766 132.594C173.294 132.864 172.902 133.253 172.628 133.723C172.354 134.192 172.208 134.725 172.204 135.269C172.201 135.813 172.34 136.348 172.608 136.821C172.692 136.968 172.739 137.133 172.746 137.302C172.753 137.472 172.72 137.64 172.649 137.794C172.578 137.947 172.471 138.082 172.337 138.186C172.204 138.291 172.047 138.361 171.881 138.393C170.94 138.577 170.101 139.104 169.527 139.872C168.954 140.641 168.687 141.595 168.779 142.549C168.871 143.504 169.314 144.39 170.024 145.035C170.733 145.68 171.658 146.037 172.616 146.038H194.27C195.009 146.039 195.74 145.885 196.416 145.586C197.092 145.286 197.697 144.848 198.193 144.299C198.688 143.751 199.063 143.104 199.293 142.402C199.522 141.699 199.601 140.956 199.525 140.22C199.449 139.485 199.219 138.774 198.85 138.133C198.481 137.493 197.982 136.937 197.384 136.501C196.787 136.066 196.105 135.761 195.382 135.607C194.659 135.452 193.912 135.452 193.188 135.604C193.017 135.64 192.839 135.634 192.671 135.585C192.503 135.536 192.35 135.446 192.224 135.324C192.099 135.202 192.006 135.051 191.952 134.884C191.899 134.717 191.888 134.54 191.919 134.368C192.074 133.522 192.058 132.654 191.873 131.814C191.687 130.974 191.336 130.18 190.839 129.478C190.343 128.776 189.711 128.181 188.981 127.726C188.251 127.272 187.437 126.968 186.588 126.832C185.739 126.696 184.871 126.732 184.036 126.936C183.201 127.14 182.414 127.509 181.724 128.021C181.033 128.534 180.452 129.179 180.014 129.919C179.576 130.659 179.29 131.479 179.174 132.331C179.149 132.524 179.071 132.707 178.95 132.859C178.829 133.011 178.668 133.127 178.485 133.195C178.302 133.262 178.105 133.278 177.914 133.242C177.723 133.206 177.545 133.12 177.399 132.991C176.827 132.468 176.08 132.18 175.305 132.182H175.315Z" fill="#989AA6"/>
<path d="M168.689 53.2951C169.006 52.7255 169.11 52.0621 168.984 51.4228C168.858 50.7834 168.509 50.2096 168 49.8032C167.49 49.3969 166.853 49.1843 166.202 49.2034C165.55 49.2225 164.927 49.472 164.442 49.9075C164.359 49.2471 164.145 48.61 163.811 48.0342C163.477 47.4585 163.031 46.9557 162.499 46.5559C161.967 46.156 161.36 45.8673 160.714 45.7069C160.068 45.5464 159.397 45.5176 158.739 45.622C158.082 45.7264 157.452 45.962 156.888 46.3147C156.324 46.6674 155.836 47.13 155.454 47.6751C155.072 48.2201 154.804 48.8364 154.665 49.4873C154.526 50.1381 154.52 50.8103 154.646 51.4638C154.363 51.4041 154.075 51.3734 153.786 51.3721C152.693 51.3962 151.652 51.8475 150.887 52.6294C150.123 53.4112 149.694 54.4615 149.694 55.5551C149.694 56.6488 150.123 57.6991 150.887 58.4809C151.652 59.2628 152.693 59.7141 153.786 59.7382H168.072C168.881 59.7395 169.661 59.4388 170.26 58.895C170.859 58.3511 171.233 57.6034 171.31 56.7981C171.386 55.9927 171.159 55.1879 170.673 54.5411C170.187 53.8943 169.478 53.4521 168.683 53.3012L168.689 53.2951Z" fill="white"/>
<path d="M168.072 60.7967H153.796C152.44 60.7826 151.142 60.2439 150.174 59.2936C149.206 58.3433 148.644 57.0552 148.605 55.6994C148.566 54.3436 149.054 53.0254 149.966 52.0214C150.878 51.0174 152.143 50.4055 153.497 50.3141C153.55 48.934 154.076 47.6143 154.987 46.5755C155.897 45.5368 157.136 44.842 158.497 44.6072C159.858 44.3725 161.258 44.6122 162.464 45.2861C163.669 45.96 164.607 47.0273 165.12 48.3096C165.693 48.1256 166.301 48.0794 166.895 48.1748C167.49 48.2702 168.053 48.5045 168.539 48.8586C169.026 49.2128 169.422 49.6767 169.695 50.2128C169.969 50.7489 170.112 51.3419 170.113 51.9437C170.113 52.1809 170.09 52.4176 170.046 52.6505C170.906 53.0928 171.593 53.8116 171.996 54.6915C172.399 55.5714 172.494 56.5611 172.266 57.5016C172.038 58.4421 171.501 59.2786 170.74 59.8766C169.979 60.4746 169.039 60.7994 168.072 60.7987V60.7967ZM153.796 52.4305C152.983 52.4513 152.21 52.7889 151.643 53.3713C151.075 53.9537 150.757 54.7349 150.757 55.5482C150.757 56.3616 151.075 57.1427 151.643 57.7251C152.21 58.3075 152.983 58.6451 153.796 58.6659H168.082C168.625 58.6655 169.148 58.4627 169.549 58.0971C169.951 57.7315 170.201 57.2294 170.252 56.6889C170.303 56.1484 170.151 55.6083 169.825 55.1742C169.499 54.7401 169.022 54.4431 168.489 54.3413C168.323 54.3092 168.167 54.2381 168.034 54.1337C167.9 54.0294 167.794 53.8949 167.723 53.7413C167.652 53.5877 167.618 53.4194 167.625 53.2502C167.632 53.0811 167.679 52.9161 167.762 52.7687C167.907 52.5166 167.983 52.2305 167.982 51.9396C167.983 51.6124 167.889 51.292 167.711 51.0174C167.533 50.7429 167.278 50.5262 166.979 50.3938C166.68 50.2614 166.349 50.2189 166.026 50.2717C165.703 50.3245 165.402 50.4701 165.161 50.6909C165.017 50.8216 164.839 50.9104 164.648 50.9476C164.457 50.9847 164.26 50.9688 164.077 50.9017C163.895 50.8345 163.734 50.7186 163.612 50.5665C163.491 50.4144 163.414 50.232 163.388 50.0391C163.251 49.0657 162.75 48.1803 161.987 47.5602C161.225 46.9401 160.256 46.631 159.275 46.6949C158.294 46.7587 157.373 47.1908 156.697 47.9046C156.021 48.6184 155.64 49.5612 155.629 50.5442C155.631 50.7849 155.654 51.0248 155.699 51.2613C155.731 51.4335 155.72 51.611 155.667 51.7781C155.615 51.9452 155.522 52.0967 155.396 52.2192C155.271 52.3417 155.117 52.4314 154.949 52.4803C154.781 52.5293 154.603 52.536 154.432 52.4998C154.223 52.4557 154.01 52.4325 153.796 52.4305Z" fill="#989AA6"/>
<path d="M84.7001 34.9627C84.2699 34.2075 84.1234 33.3236 84.2869 32.47C84.4505 31.6165 84.9134 30.8493 85.5923 30.3067C86.2713 29.7642 87.1216 29.4817 87.9902 29.5104C88.8588 29.539 89.6887 29.8768 90.3304 30.4629C90.4461 29.5921 90.7349 28.7534 91.1798 27.996C91.6247 27.2387 92.2167 26.578 92.9209 26.053C93.6252 25.528 94.4273 25.1493 95.2802 24.9392C96.1331 24.729 97.0194 24.6917 97.8869 24.8295C98.7544 24.9672 99.5855 25.2772 100.331 25.7412C101.077 26.2052 101.723 26.8137 102.23 27.531C102.737 28.2483 103.095 29.0599 103.283 29.9178C103.472 30.7757 103.486 31.6626 103.327 32.5264C104.087 32.3669 104.872 32.3689 105.631 32.5321C106.39 32.6953 107.107 33.0161 107.734 33.4738C108.362 33.9315 108.886 34.5159 109.273 35.189C109.661 35.8622 109.902 36.6092 109.983 37.3817C110.063 38.1541 109.98 38.9348 109.74 39.6733C109.499 40.4117 109.106 41.0914 108.586 41.6683C108.066 42.2452 107.431 42.7066 106.721 43.0224C106.012 43.3383 105.244 43.5017 104.467 43.5019H85.523C84.4509 43.5024 83.4172 43.1031 82.6237 42.3821C81.8303 41.661 81.3342 40.6701 81.2324 39.6028C81.1305 38.5356 81.4303 37.4687 82.073 36.6106C82.7158 35.7526 83.6554 35.165 84.7082 34.9627H84.7001Z" fill="white"/>
<path d="M104.468 44.566H85.5231C84.2938 44.5678 83.101 44.148 82.1438 43.3767C81.1866 42.6055 80.5227 41.5293 80.2629 40.3278C80.0032 39.1262 80.1632 37.872 80.7164 36.7742C81.2696 35.6764 82.1824 34.8014 83.3027 34.2953C83.2123 33.9252 83.1665 33.5456 83.1662 33.1647C83.1661 32.3944 83.3548 31.6358 83.7157 30.9553C84.0766 30.2748 84.5988 29.6931 85.2366 29.2612C85.8744 28.8292 86.6083 28.5601 87.3742 28.4775C88.14 28.3949 88.9145 28.5012 89.6297 28.7871C90.2257 27.0808 91.4066 25.6406 92.9631 24.722C94.5196 23.8033 96.3512 23.4655 98.133 23.7684C99.9148 24.0713 101.532 24.9954 102.697 26.3768C103.863 27.7582 104.501 29.5077 104.5 31.3151V31.3375C106.254 31.3429 107.935 32.0449 109.171 33.2892C110.408 34.5334 111.099 36.2179 111.094 37.9721C111.089 39.7263 110.387 41.4065 109.142 42.6431C107.898 43.8797 106.214 44.5714 104.459 44.566H104.468ZM87.8779 30.5756C87.1919 30.5772 86.5345 30.8506 86.0496 31.3359C85.5648 31.8211 85.2919 32.4787 85.2908 33.1647C85.2901 33.6105 85.406 34.0487 85.627 34.4358C85.7106 34.5831 85.7579 34.7483 85.7649 34.9175C85.772 35.0868 85.7386 35.2552 85.6675 35.409C85.5964 35.5627 85.4896 35.6973 85.3561 35.8016C85.2226 35.9058 85.0661 35.9767 84.8997 36.0084C84.1065 36.1592 83.3982 36.6007 82.9134 37.2463C82.4286 37.892 82.2022 38.6954 82.2787 39.4992C82.3551 40.303 82.7289 41.0493 83.3267 41.592C83.9246 42.1347 84.7034 42.4347 85.5108 42.4332H104.455C105.084 42.4347 105.705 42.3039 106.28 42.0495C106.855 41.795 107.369 41.4226 107.791 40.9563C108.212 40.49 108.531 39.9403 108.726 39.343C108.921 38.7456 108.988 38.1139 108.923 37.4888C108.858 36.8637 108.662 36.2593 108.349 35.7148C108.035 35.1702 107.61 34.6977 107.102 34.328C106.594 33.9583 106.014 33.6995 105.399 33.5686C104.785 33.4377 104.149 33.4375 103.535 33.568C103.363 33.604 103.186 33.5972 103.018 33.5483C102.85 33.4995 102.696 33.41 102.571 33.2879C102.445 33.1657 102.352 33.0146 102.299 32.8478C102.245 32.6811 102.234 32.5038 102.265 32.3316C102.331 31.9959 102.364 31.6549 102.365 31.313C102.365 29.9119 101.831 28.5636 100.873 27.5414C99.9145 26.5192 98.6034 25.8999 97.2052 25.8089C95.8071 25.7179 94.4267 26.1622 93.3441 27.0516C92.2615 27.941 91.5577 29.2088 91.3755 30.598C91.3503 30.7912 91.2727 30.9738 91.1511 31.126C91.0294 31.2781 90.8683 31.394 90.6854 31.461C90.5025 31.528 90.3047 31.5435 90.1135 31.5059C89.9224 31.4684 89.7452 31.3791 89.6012 31.2478C89.1298 30.8182 88.5157 30.5787 87.8779 30.5756Z" fill="#989AA6"/>
<path d="M46.0633 77.024C46.5158 76.2282 46.6695 75.297 46.4966 74.398C46.3238 73.4991 45.8358 72.6913 45.1204 72.1201C44.405 71.5489 43.5093 71.2517 42.5943 71.2821C41.6794 71.3125 40.8053 71.6684 40.1294 72.2858C39.8412 70.4708 38.8438 68.8447 37.3566 67.7651C35.8694 66.6855 34.0143 66.2409 32.1993 66.5291C30.3843 66.8174 28.7581 67.8148 27.6785 69.302C26.5989 70.7892 26.1544 72.6443 26.4426 74.4593C26.0477 74.3733 25.6449 74.3296 25.2407 74.329C24.4733 74.329 23.7133 74.4801 23.0042 74.7738C22.2952 75.0675 21.6509 75.498 21.1082 76.0407C20.5655 76.5834 20.1351 77.2277 19.8414 77.9367C19.5476 78.6458 19.3965 79.4057 19.3965 80.1732C19.3965 80.9407 19.5476 81.7007 19.8414 82.4097C20.1351 83.1188 20.5655 83.763 21.1082 84.3057C21.6509 84.8484 22.2952 85.2789 23.0042 85.5726C23.7133 85.8663 24.4733 86.0175 25.2407 86.0175H45.2037C46.3314 86.0157 47.4181 85.5942 48.252 84.835C49.0859 84.0759 49.6073 83.0334 49.7146 81.9108C49.8219 80.7882 49.5074 79.6659 48.8324 78.7624C48.1575 77.859 47.1703 77.2393 46.0633 77.024Z" fill="white"/>
<path d="M45.2037 87.0842H25.2407C24.3232 87.099 23.412 86.9309 22.5601 86.5898C21.7083 86.2487 20.9329 85.7413 20.2791 85.0974C19.6254 84.4534 19.1064 83.6858 18.7525 82.8391C18.3986 81.9925 18.2168 81.0839 18.2178 80.1663C18.2187 79.2487 18.4024 78.3404 18.758 77.4945C19.1137 76.6486 19.6342 75.882 20.2893 75.2394C20.9444 74.5968 21.7208 74.0911 22.5734 73.7518C23.4259 73.4124 24.3375 73.2462 25.255 73.2629V73.1834C25.2531 71.2879 25.9243 69.4533 27.149 68.0066C28.3738 66.5598 30.0725 65.595 31.9424 65.2841C33.8122 64.9732 35.7317 65.3364 37.3587 66.309C38.9858 67.2815 40.2146 68.8002 40.8261 70.5944C41.6696 70.2431 42.5944 70.1341 43.4965 70.2795C44.3985 70.4248 45.2422 70.8189 45.9327 71.4173C46.6232 72.0157 47.1331 72.7948 47.4052 73.6671C47.6773 74.5394 47.7008 75.4702 47.473 76.3551C48.6487 76.875 49.6099 77.7833 50.1955 78.9278C50.7811 80.0722 50.9553 81.3832 50.6891 82.6409C50.4228 83.8986 49.7323 85.0265 48.7332 85.8355C47.7341 86.6444 46.4872 87.0853 45.2017 87.0842H45.2037ZM25.2407 75.3957C23.9907 75.4215 22.8005 75.9362 21.9255 76.8294C21.0506 77.7226 20.5605 78.9232 20.5605 80.1735C20.5605 81.4239 21.0506 82.6244 21.9255 83.5177C22.8005 84.4109 23.9907 84.9256 25.2407 84.9514H45.2037C46.0846 84.9812 46.9437 84.6739 47.6059 84.0923C48.2682 83.5107 48.6837 82.6984 48.7678 81.8211C48.852 80.9437 48.5984 80.0672 48.0588 79.3703C47.5192 78.6734 46.7342 78.2085 45.8637 78.0703C45.6972 78.0388 45.5407 77.9679 45.4072 77.8636C45.2736 77.7594 45.1669 77.6247 45.096 77.4708C45.025 77.317 44.9919 77.1484 44.9993 76.9791C45.0067 76.8098 45.0544 76.6448 45.1385 76.4977C45.4657 75.9224 45.5767 75.2492 45.4517 74.5993C45.3267 73.9494 44.9738 73.3655 44.4565 72.9527C43.9393 72.5398 43.2917 72.3251 42.6302 72.3473C41.9688 72.3694 41.337 72.6269 40.8485 73.0734C40.7044 73.2047 40.5271 73.294 40.3358 73.3315C40.1445 73.3689 39.9465 73.3532 39.7636 73.286C39.5806 73.2187 39.4196 73.1026 39.298 72.9502C39.1765 72.7978 39.0991 72.6149 39.0743 72.4216C38.9773 71.6407 38.7242 70.8873 38.33 70.2062C37.9358 69.5251 37.4087 68.9303 36.7799 68.4571C36.1512 67.9839 35.4336 67.6421 34.67 67.4519C33.9064 67.2618 33.1124 67.2272 32.3352 67.3502C31.5579 67.4732 30.8134 67.7514 30.1458 68.168C29.4783 68.5847 28.9014 69.1315 28.4495 69.7757C27.9976 70.4199 27.6799 71.1484 27.5154 71.918C27.3508 72.6875 27.3428 73.4822 27.4917 74.2549C27.5243 74.4273 27.5139 74.6051 27.4613 74.7725C27.4087 74.9398 27.3156 75.0916 27.1902 75.2144C27.0649 75.3371 26.9111 75.427 26.7427 75.476C26.5742 75.5251 26.3963 75.5318 26.2246 75.4955C25.9018 75.4277 25.5727 75.3943 25.2428 75.3957H25.2407Z" fill="#989AA6"/>
<path d="M200.601 196.338H19.3987C19.124 196.326 18.8644 196.208 18.6743 196.01C18.4841 195.811 18.3779 195.546 18.3779 195.271C18.3779 194.996 18.4841 194.732 18.6743 194.533C18.8644 194.335 19.124 194.217 19.3987 194.205H200.601C200.876 194.217 201.136 194.335 201.326 194.533C201.516 194.732 201.622 194.996 201.622 195.271C201.622 195.546 201.516 195.811 201.326 196.01C201.136 196.208 200.876 196.326 200.601 196.338Z" fill="#989AA6"/>
<path d="M110 56.7051L40.7163 113.392L110 170.076L179.284 113.392L110 56.7051Z" fill="#B8B5C6"/>
<path d="M122.446 66.8906L46.6562 118.252L110 170.077L179.284 113.392L122.446 66.8906Z" fill="#A09CAD"/>
<path d="M110 171.144C109.754 171.144 109.516 171.059 109.326 170.904L40.0422 114.217C39.9199 114.117 39.8213 113.991 39.7537 113.849C39.686 113.706 39.6509 113.55 39.6509 113.392C39.6509 113.234 39.686 113.078 39.7537 112.936C39.8213 112.793 39.9199 112.667 40.0422 112.567L109.326 55.8805C109.516 55.7254 109.754 55.6406 110 55.6406C110.246 55.6406 110.484 55.7254 110.674 55.8805L179.958 112.567C180.08 112.667 180.179 112.793 180.247 112.936C180.314 113.078 180.349 113.234 180.349 113.392C180.349 113.55 180.314 113.706 180.247 113.849C180.179 113.991 180.08 114.117 179.958 114.217L110.674 170.908C110.483 171.062 110.245 171.145 110 171.144ZM42.4011 113.392L110 168.7L177.599 113.392L110 58.0826L42.4011 113.392Z" fill="#282C3F"/>
<path d="M157.964 73.7578H62.0337V195.269H157.964V73.7578Z" fill="white"/>
<path d="M157.966 195.271H62.0361V107.829L112.31 73.7578H157.966V195.271Z" fill="#EDEDED"/>
<path d="M157.966 196.338H62.0336C61.8936 196.338 61.7549 196.311 61.6255 196.257C61.4961 196.203 61.3785 196.125 61.2796 196.026C61.1806 195.927 61.1022 195.809 61.0488 195.679C60.9954 195.55 60.968 195.411 60.9683 195.271V73.7598C60.9683 73.4772 61.0805 73.2062 61.2803 73.0064C61.4801 72.8066 61.7511 72.6944 62.0336 72.6944H72.8136C72.9576 72.6881 73.1013 72.711 73.2362 72.7618C73.3711 72.8125 73.4943 72.8901 73.5984 72.9897C73.7025 73.0893 73.7853 73.209 73.8419 73.3415C73.8985 73.4741 73.9277 73.6167 73.9277 73.7608C73.9277 73.9049 73.8985 74.0475 73.8419 74.18C73.7853 74.3125 73.7025 74.4322 73.5984 74.5318C73.4943 74.6315 73.3711 74.709 73.2362 74.7598C73.1013 74.8105 72.9576 74.8334 72.8136 74.8272H63.101V194.198H156.898V74.8272H80.2753C80.0005 74.8151 79.741 74.6975 79.5508 74.4989C79.3607 74.3002 79.2545 74.0358 79.2545 73.7608C79.2545 73.4857 79.3607 73.2213 79.5508 73.0227C79.741 72.824 80.0005 72.7064 80.2753 72.6944H157.966C158.248 72.6944 158.519 72.8066 158.719 73.0064C158.919 73.2062 159.031 73.4772 159.031 73.7598V195.271C159.032 195.411 159.004 195.55 158.951 195.679C158.897 195.809 158.819 195.927 158.72 196.026C158.621 196.125 158.503 196.203 158.374 196.257C158.245 196.311 158.106 196.338 157.966 196.338Z" fill="#282C3F"/>
<path d="M110 170.075L40.7163 113.391V195.271H179.284V113.391L110 170.075Z" fill="#2FC8F2"/>
<path d="M179.284 195.272L129.246 154.332L139.845 145.658L179.284 194.189V195.272Z" fill="#2CAAE6"/>
<path d="M179.284 196.338H40.7163C40.5762 196.338 40.4375 196.31 40.3081 196.257C40.1787 196.203 40.0612 196.124 39.9622 196.025C39.8632 195.926 39.7848 195.808 39.7314 195.679C39.678 195.549 39.6506 195.41 39.6509 195.27V113.382C39.6528 113.181 39.7114 112.985 39.8199 112.816C39.9284 112.647 40.0825 112.512 40.2643 112.427C40.4461 112.342 40.6483 112.31 40.8476 112.334C41.0469 112.359 41.2351 112.44 41.3905 112.567L110 168.699L178.609 112.567C178.765 112.44 178.953 112.359 179.152 112.334C179.352 112.31 179.554 112.342 179.736 112.427C179.917 112.512 180.071 112.647 180.18 112.816C180.289 112.985 180.347 113.181 180.349 113.382V158.74C180.337 159.015 180.219 159.275 180.021 159.465C179.822 159.655 179.558 159.761 179.283 159.761C179.008 159.761 178.743 159.655 178.545 159.465C178.346 159.275 178.228 159.015 178.216 158.74V115.641L110.674 170.907C110.484 171.063 110.246 171.147 110 171.147C109.754 171.147 109.516 171.063 109.326 170.907L41.7837 115.641V194.205H178.216V165.137C178.21 164.993 178.233 164.849 178.284 164.714C178.334 164.579 178.412 164.456 178.512 164.352C178.611 164.248 178.731 164.165 178.863 164.108C178.996 164.052 179.139 164.023 179.283 164.023C179.427 164.023 179.569 164.052 179.702 164.108C179.834 164.165 179.954 164.248 180.054 164.352C180.153 164.456 180.231 164.579 180.282 164.714C180.332 164.849 180.355 164.993 180.349 165.137V195.27C180.349 195.41 180.322 195.549 180.269 195.679C180.215 195.808 180.137 195.926 180.038 196.025C179.939 196.124 179.821 196.203 179.692 196.257C179.562 196.31 179.424 196.338 179.284 196.338Z" fill="#282C3F"/>
<path d="M110 138.586L179.284 195.273H40.7163L110 138.586Z" fill="#2CAAE6"/>
<path d="M110 138.586L164.666 183.311L41.8691 194.327L110 138.586Z" fill="#2FC8F2"/>
<path d="M179.284 196.338H40.7162C40.4965 196.337 40.2822 196.268 40.1028 196.142C39.9234 196.015 39.7875 195.835 39.7138 195.628C39.64 195.421 39.6319 195.197 39.6907 194.985C39.7494 194.773 39.8721 194.585 40.042 194.445L65.4703 173.643C65.5786 173.554 65.7034 173.488 65.8373 173.448C65.9713 173.407 66.1119 173.394 66.2512 173.408C66.3904 173.422 66.5255 173.463 66.6487 173.529C66.772 173.595 66.881 173.685 66.9696 173.794C67.0581 173.902 67.1244 174.027 67.1648 174.161C67.2051 174.295 67.2187 174.435 67.2047 174.574C67.1907 174.714 67.1494 174.849 67.0832 174.972C67.017 175.095 66.9272 175.204 66.8188 175.293L43.7025 194.205H176.297L110 139.963L72.1844 170.907C72.0765 171.001 71.951 171.072 71.8151 171.116C71.6793 171.161 71.5359 171.177 71.3935 171.165C71.2511 171.153 71.1126 171.113 70.9862 171.046C70.8598 170.979 70.748 170.888 70.6576 170.777C70.5671 170.667 70.4998 170.539 70.4597 170.402C70.4195 170.265 70.4072 170.121 70.4237 169.979C70.4401 169.837 70.4849 169.7 70.5553 169.575C70.6258 169.451 70.7205 169.342 70.8338 169.255L109.334 137.765C109.524 137.609 109.762 137.523 110.008 137.523C110.254 137.523 110.492 137.609 110.682 137.765L179.958 194.445C180.128 194.585 180.25 194.773 180.309 194.985C180.368 195.197 180.36 195.421 180.286 195.628C180.212 195.835 180.076 196.015 179.897 196.142C179.718 196.268 179.503 196.337 179.284 196.338Z" fill="#282C3F"/>
<path d="M112.97 136.646C127.687 136.646 139.617 124.716 139.617 110C139.617 95.2836 127.687 83.3535 112.97 83.3535C98.2538 83.3535 86.3237 95.2836 86.3237 110C86.3237 124.716 98.2538 136.646 112.97 136.646Z" fill="#989AA6"/>
<path d="M111.082 134.514C125.798 134.514 137.728 122.584 137.728 107.867C137.728 93.1507 125.798 81.2207 111.082 81.2207C96.3651 81.2207 84.4351 93.1507 84.4351 107.867C84.4351 122.584 96.3651 134.514 111.082 134.514Z" fill="#30354C"/>
<path d="M125.787 104.002H96.3744C95.1909 104.002 94.2314 104.961 94.2314 106.145V109.59C94.2314 110.773 95.1909 111.733 96.3744 111.733H125.787C126.971 111.733 127.93 110.773 127.93 109.59V106.145C127.93 104.961 126.971 104.002 125.787 104.002Z" fill="white"/>
</svg>
