<svg width="30" height="30" viewBox="0 0 30 30" fill="none" xmlns="http://www.w3.org/2000/svg">
<path d="M14.0663 24.0514C13.2434 23.3909 5.60212 15.9588 5.51671 15.8775C5.17923 15.5399 4.96674 15.1899 4.90841 14.869C4.84799 14.5357 4.95007 14.244 5.22089 13.9731C5.47296 13.721 5.78128 13.5876 6.11251 13.5876C6.51666 13.5876 6.93122 13.7793 7.27703 14.1273L10.7414 17.4569C10.8018 17.5152 10.881 17.5444 10.9581 17.5444C11.0393 17.5444 11.1185 17.5131 11.1789 17.4527C11.2997 17.3318 11.2997 17.136 11.181 17.0151L5.65004 11.3019C5.0959 10.7477 4.83549 9.89966 5.49379 9.24124C5.74586 8.98913 6.05418 8.85578 6.38541 8.85578C6.78956 8.85578 7.20412 9.04747 7.54994 9.39543L13.208 14.9128C13.2684 14.9711 13.3475 15.0024 13.4267 15.0024C13.5059 15.0024 13.5871 14.9711 13.6475 14.9107C13.7684 14.7899 13.7704 14.594 13.6496 14.4711L6.85414 7.50353C6.53957 7.1889 6.35 6.81177 6.31667 6.44506C6.28542 6.0721 6.41666 5.72622 6.6979 5.44494C6.94997 5.19282 7.25828 5.05947 7.58952 5.05947C7.99366 5.05947 8.40822 5.25116 8.75404 5.59704L15.6849 12.3562C15.7453 12.4146 15.8245 12.4458 15.9037 12.4458C15.9828 12.4458 16.0641 12.4146 16.1245 12.3541C16.2453 12.2333 16.2474 12.0374 16.1266 11.9145L11.0935 6.74093C10.7769 6.42422 10.5873 6.04918 10.556 5.68247C10.5248 5.3095 10.656 4.96362 10.9373 4.68234C11.1893 4.43022 11.4976 4.29688 11.8289 4.29688C12.233 4.29688 12.6476 4.48857 12.9934 4.83653C14.8391 6.64925 19.6576 11.3894 19.8201 11.5645C20.4388 11.9916 20.5638 11.3457 20.5951 10.9269C20.6305 10.4393 20.0722 8.73701 20.3972 7.20557C20.943 5.1699 22.5158 5.50328 22.5512 5.51994C23.4137 5.92416 23.2491 6.5284 22.9429 7.74314L22.9116 7.98275C22.5908 9.57045 24.7949 14.2752 24.9574 14.6273C25.8219 16.5192 26.8177 20.3551 23.5199 23.6535C19.9055 27.2685 15.4308 25.4162 14.0663 24.0514Z" fill="url(#paint0_radial_447_1176)"/>
<path d="M18.7044 26.0809C16.4878 26.0809 14.6025 25.0203 13.8588 24.2848C13.1901 23.7389 8.96945 19.6634 5.53213 16.3276C5.39255 16.1922 5.31131 16.1151 5.30297 16.1046C4.91341 15.715 4.67176 15.3087 4.60301 14.9253C4.52385 14.4899 4.65926 14.0961 5.00091 13.7523C5.31339 13.4397 5.6967 13.2751 6.11335 13.2751C6.60291 13.2751 7.09455 13.5001 7.49869 13.9064L10.9589 17.2319L5.42588 11.5187C4.78842 10.8811 4.4676 9.82469 5.27381 9.02042C5.58629 8.70788 5.96961 8.54328 6.38625 8.54328C6.87581 8.54328 7.36745 8.76831 7.7716 9.17461L13.4255 14.6878L6.63207 7.72234C6.26959 7.3598 6.04669 6.91599 6.0071 6.47427C5.96752 6.00338 6.13001 5.57207 6.47791 5.22411C6.7904 4.91157 7.17371 4.74697 7.59035 4.74697C8.07783 4.74697 8.56947 4.96991 8.9757 5.37622L15.9045 12.1333L10.8714 6.95975C10.5069 6.59512 10.284 6.15131 10.2465 5.70959C10.2069 5.24078 10.3694 4.80948 10.7173 4.46152C11.0298 4.14898 11.4131 3.98438 11.8297 3.98438C12.3193 3.98438 12.8109 4.2094 13.2151 4.6157L14.7171 6.0888C17.394 8.71413 19.6314 10.9123 19.871 11.1582C19.9876 11.2519 20.1397 11.2874 20.2043 11.2561C20.2459 11.2353 20.2918 11.1394 20.2834 10.9373C20.2709 10.5831 20.2209 10.1435 20.1689 9.67884C20.0647 8.74539 19.9564 7.7786 20.0918 7.14102C20.3876 6.03463 20.9688 5.56582 21.4021 5.36371C21.9979 5.08868 22.575 5.18452 22.6854 5.23661C23.7687 5.74501 23.5541 6.59512 23.2583 7.77443L23.252 7.8036L23.2187 8.04738C23.002 9.11418 24.1145 12.0625 25.2269 14.4649L25.2436 14.4982C25.9873 16.1234 27.3268 20.2927 23.7437 23.8764C22.0958 25.5204 20.3126 26.0809 18.7044 26.0809ZM6.11335 13.9002C5.86753 13.9002 5.63421 14.0023 5.44255 14.194C5.24464 14.3919 5.1759 14.5836 5.21756 14.8128C5.26339 15.0649 5.4488 15.365 5.73837 15.6567C5.74045 15.6588 5.82378 15.74 5.96752 15.8775C10.8464 20.6135 13.7921 23.4285 14.2629 23.8077L14.2879 23.8306C15.4379 24.9807 19.7106 27.0227 23.2999 23.4326C26.606 20.126 25.3623 16.2651 24.6728 14.7566L24.6582 14.7253C23.9416 13.1793 22.3125 9.42881 22.6021 7.93279L22.65 7.62025C22.9708 6.34509 22.9895 6.07839 22.4458 5.81585C22.2854 5.78668 21.1355 5.64708 20.6959 7.28687C20.5855 7.80985 20.6918 8.76622 20.7855 9.61008C20.8397 10.0872 20.8897 10.5394 20.9022 10.9165C20.923 11.5103 20.6418 11.7374 20.4709 11.8208C20.123 11.9895 19.7085 11.8458 19.4502 11.6291L19.4231 11.6041C19.296 11.4666 16.2732 8.50161 14.2733 6.53886L12.7692 5.06159C12.2568 4.54695 11.5964 4.46152 11.1527 4.90532C10.936 5.12202 10.8381 5.37622 10.861 5.6575C10.886 5.95129 11.0443 6.25758 11.3089 6.52219L16.3524 11.6958C16.5899 11.9375 16.5899 12.3333 16.3482 12.575C16.117 12.8063 15.7087 12.8105 15.4712 12.5813L8.53614 5.82002C8.02367 5.30746 7.3612 5.22203 6.91956 5.66584C6.7029 5.88253 6.60499 6.13673 6.62791 6.41801C6.65499 6.7118 6.81331 7.02017 7.0758 7.28062L13.8734 14.2523C14.1129 14.494 14.1108 14.8899 13.8692 15.1316C13.638 15.3629 13.2296 15.367 12.9922 15.1379L7.33204 9.61841C6.81956 9.10168 6.1571 9.01834 5.71545 9.46214C5.1759 10.0018 5.46338 10.6706 5.8717 11.0811L11.4068 16.7985C11.6443 17.0402 11.6422 17.434 11.4006 17.6736C11.1673 17.9069 10.7631 17.909 10.5256 17.6819L7.06122 14.3523C6.76956 14.0585 6.43417 13.9002 6.11335 13.9002Z" fill="#EDA600"/>
<path d="M19.3225 11.3633C18.1788 13.699 18.3267 16.9681 20.0433 19.5914C20.237 19.9456 20.5683 19.7727 20.3995 19.408C18.3267 14.9721 20.4995 11.7758 20.4995 11.7758L19.3225 11.3633Z" fill="#EDA600"/>
<path d="M14.8267 2.60609C15.4558 2.44148 16.1266 2.45607 16.7786 2.60817C17.4265 2.76444 18.0744 3.09365 18.5556 3.63121C19.0264 4.16461 19.316 4.81261 19.4139 5.49186C19.5056 6.16487 19.4202 6.8587 19.1014 7.43377C19.0639 6.78786 18.9514 6.19404 18.7619 5.64605C18.664 5.3731 18.5494 5.11265 18.4098 4.86679C18.2723 4.62301 18.1098 4.38131 17.9369 4.18337C17.5848 3.77707 17.1078 3.46036 16.5724 3.2145C16.0349 2.9603 15.4495 2.77277 14.8267 2.60609Z" fill="#B0BEC5"/>
<path d="M15 4.5794C15.3479 4.35854 15.7833 4.3127 16.1937 4.38563C16.6082 4.45855 17.0041 4.66483 17.3165 4.95028C17.6269 5.2399 17.8478 5.60453 17.9853 5.98374C18.0519 6.17335 18.0853 6.37338 18.1165 6.56715C18.1269 6.76717 18.1269 6.9672 18.0957 7.16722C17.9519 7.01512 17.8394 6.86302 17.7332 6.71509C17.6103 6.57548 17.5145 6.42755 17.404 6.29212C17.1874 6.02333 16.977 5.77955 16.7499 5.56286C16.5166 5.35241 16.2708 5.16698 15.9854 5.00654C15.702 4.84193 15.3833 4.70442 15 4.5794Z" fill="#90A4AE"/>
<path d="M3.08797 17.7812C3.3817 18.3563 3.68793 18.8897 4.04417 19.3606C4.39831 19.8315 4.80454 20.2316 5.27744 20.492C5.50659 20.6191 5.77949 20.7295 6.04614 20.8129C6.31488 20.8983 6.59403 20.9566 6.88152 20.9962C7.45649 21.0671 8.06062 21.0546 8.70017 20.9566C8.20437 21.388 7.5419 21.6171 6.86694 21.6672C6.18364 21.713 5.48992 21.5651 4.86912 21.215C4.24416 20.8587 3.78585 20.292 3.49836 19.6898C3.21088 19.0835 3.05672 18.4313 3.08797 17.7812Z" fill="#B0BEC5"/>
<path d="M5.05771 17.5391C5.25979 17.8891 5.45977 18.1704 5.67851 18.4163C5.89517 18.6621 6.12849 18.8642 6.38264 19.0476C6.64096 19.2247 6.92428 19.381 7.2326 19.5372C7.38676 19.6164 7.55133 19.6789 7.71382 19.7706C7.88257 19.8435 8.05339 19.9206 8.23255 20.031C8.04297 20.1019 7.84923 20.1436 7.65133 20.1748C7.4555 20.1831 7.25343 20.1936 7.05344 20.1665C6.65346 20.1123 6.25348 19.9727 5.9035 19.7289C5.55977 19.481 5.27437 19.1372 5.11813 18.7475C4.9598 18.36 4.91397 17.9266 5.05771 17.5391Z" fill="#90A4AE"/>
<defs>
<radialGradient id="paint0_radial_447_1176" cx="0" cy="0" r="1" gradientUnits="userSpaceOnUse" gradientTransform="translate(10.8406 9.58293) rotate(-45.0051) scale(18.9606)">
<stop offset="0.3533" stopColor="#FFCA28"/>
<stop offset="0.8723" stopColor="#FFB300"/>
</radialGradient>
</defs>
</svg>
